<?xml version="1.0" encoding="UTF-8"?>
<!DOCTYPE svg PUBLIC "-//W3C//DTD SVG 1.1//EN" "http://www.w3.org/Graphics/SVG/1.1/DTD/svg11.dtd">
<svg xmlns="http://www.w3.org/2000/svg" version="1.1" width="298px" height="504px" style="shape-rendering:geometricPrecision; text-rendering:geometricPrecision; image-rendering:optimizeQuality; fill-rule:evenodd; clip-rule:evenodd" xmlns:xlink="http://www.w3.org/1999/xlink">
<g><path style="opacity:0.998" fill="#030303" d="M 127.5,14.5 C 127.5,45.5 127.5,76.5 127.5,107.5C 178.5,107.5 229.5,107.5 280.5,107.5C 230.902,235.289 180.902,362.956 130.5,490.5C 118.333,490.833 106.167,491.167 94,491.5C 81.3486,491.659 68.8486,491.159 56.5,490C 95.6004,398.195 134.6,306.362 173.5,214.5C 174.043,214.44 174.376,214.107 174.5,213.5C 158.848,212.501 143.181,212.167 127.5,212.5C 127.5,243.167 127.5,273.833 127.5,304.5C 127.389,305.117 127.056,305.617 126.5,306C 120.584,306.807 114.75,306.641 109,305.5C 108.82,279.637 108.32,253.803 107.5,228C 108.419,223.219 108.752,218.385 108.5,213.5C 95.1625,213.333 81.8292,213.5 68.5,214C 69.7738,244.108 69.7738,274.274 68.5,304.5C 62.1667,304.5 55.8333,304.5 49.5,304.5C 49.8315,273.995 49.4981,243.662 48.5,213.5C 40.0161,212.507 31.3494,212.174 22.5,212.5C 22.5,177.5 22.5,142.5 22.5,107.5C 31.5,107.5 40.5,107.5 49.5,107.5C 49.5,76.8333 49.5,46.1667 49.5,15.5C 55.8333,15.5 62.1667,15.5 68.5,15.5C 68.5,46.1667 68.5,76.8333 68.5,107.5C 82.0105,107.829 95.3438,107.496 108.5,106.5C 108.5,75.8333 108.5,45.1667 108.5,14.5C 114.833,14.5 121.167,14.5 127.5,14.5 Z"/></g>
<g><path style="opacity:0.202" fill="#c1c1c1" d="M 68.5,14.5 C 69.4981,44.9955 69.8315,75.6621 69.5,106.5C 82.5,106.5 95.5,106.5 108.5,106.5C 95.3438,107.496 82.0105,107.829 68.5,107.5C 68.5,76.8333 68.5,46.1667 68.5,15.5C 68.5,15.1667 68.5,14.8333 68.5,14.5 Z"/></g>
<g><path style="opacity:0.563" fill="#585858" d="M 68.5,14.5 C 68.5,14.8333 68.5,15.1667 68.5,15.5C 62.1667,15.5 55.8333,15.5 49.5,15.5C 49.5,46.1667 49.5,76.8333 49.5,107.5C 40.5,107.5 31.5,107.5 22.5,107.5C 30.9839,106.507 39.6506,106.174 48.5,106.5C 48.5,75.8333 48.5,45.1667 48.5,14.5C 55.1667,14.5 61.8333,14.5 68.5,14.5 Z"/></g>
<g><path style="opacity:0.103" fill="#b5b5b5" d="M 127.5,14.5 C 128.498,44.9955 128.831,75.6621 128.5,106.5C 179.336,106.168 230.003,106.501 280.5,107.5C 229.5,107.5 178.5,107.5 127.5,107.5C 127.5,76.5 127.5,45.5 127.5,14.5 Z"/></g>
<g><path style="opacity:0.31" fill="#9f9f9f" d="M 22.5,107.5 C 22.5,142.5 22.5,177.5 22.5,212.5C 31.3494,212.174 40.0161,212.507 48.5,213.5C 39.5,213.5 30.5,213.5 21.5,213.5C 21.1683,177.996 21.5016,142.663 22.5,107.5 Z"/></g>
<g><path style="opacity:0.388" fill="#838383" d="M 173.5,214.5 C 158.676,213.504 143.676,213.171 128.5,213.5C 128.831,244.005 128.498,274.338 127.5,304.5C 127.5,273.833 127.5,243.167 127.5,212.5C 143.181,212.167 158.848,212.501 174.5,213.5C 174.376,214.107 174.043,214.44 173.5,214.5 Z"/></g>
<g><path style="opacity:0.523" fill="#5f5f5f" d="M 48.5,213.5 C 49.4981,243.662 49.8315,273.995 49.5,304.5C 55.8333,304.5 62.1667,304.5 68.5,304.5C 62.021,305.491 55.3543,305.824 48.5,305.5C 48.5,274.833 48.5,244.167 48.5,213.5 Z"/></g>
</svg>
