<?xml version="1.0" encoding="utf-8"?>
<!DOCTYPE svg PUBLIC "-//W3C//DTD SVG 1.0//EN" "http://www.w3.org/TR/2001/REC-SVG-20010904/DTD/svg10.dtd">
<svg version="1.0" xmlns="http://www.w3.org/2000/svg" width="351px" height="250px" viewBox="0 0 351 250" preserveAspectRatio="xMidYMid meet">
 <g fill="#000000">
  <path d="M154 241.4 c-21.1 -2.9 -35.5 -8.7 -47 -19.1 -7.6 -6.9 -11 -12.1 -11 -16.9 0 -2.7 -0.9 -4.6 -3.5 -7.7 -5.5 -6.4 -7.9 -12.3 -8.3 -20.2 -0.5 -8.8 0.9 -10.7 11.6 -17 18.3 -10.7 37.2 -12.1 53.9 -3.9 10.4 5 12.7 8.4 13.2 19.1 0.3 8 0.2 8.5 -3 13.4 -1.8 2.9 -6.6 7.8 -10.6 11 -6.6 5.3 -7.1 5.8 -5 6.5 2.9 1 59.2 0.9 63.5 0 l3.3 -0.8 -4.3 -3.6 c-6.8 -5.8 -9.8 -9.2 -12.5 -14.6 -2.1 -4.2 -2.4 -6 -2.1 -11.6 0.4 -8 3 -12.6 9.8 -17.1 7.9 -5.3 16.3 -7.2 30.4 -6.8 12 0.4 12.5 0.5 20.1 4.3 4.2 2.2 10.2 6.3 13.1 9.1 l5.4 5.1 0 6.6 c0 7.2 -2.2 13.8 -6.6 19.5 -1.6 2.1 -2.4 4.5 -2.4 7.2 0 3.5 -0.7 4.8 -5.7 10.1 -14.2 15.4 -34.2 24.9 -58.8 27.9 -11.9 1.4 -30.5 1.2 -43.5 -0.5z m18.4 -11.6 c0.3 -1.3 0.6 -4 0.6 -6 0 -3.4 -0.3 -3.7 -3.2 -4.2 -1.8 -0.3 -8.6 -0.7 -15 -0.9 l-11.8 -0.3 0 4.2 c0 4.8 -0.6 4.5 11.5 6.8 16.6 3.2 17.1 3.2 17.9 0.4z m30.1 -1 c11.8 -2.7 12.5 -3.1 12.5 -7.4 l0 -3.6 -12.2 0.7 c-6.8 0.3 -13.8 0.8 -15.5 1.1 l-3.3 0.5 0 6.1 0 6 4.8 -0.7 c2.6 -0.3 8.8 -1.6 13.7 -2.7z m-71.2 -10.8 c-1 -0.9 -10.3 -2.4 -10.3 -1.6 0 0.3 2.4 1.9 5.3 3.6 5.1 2.9 5.2 2.9 5.5 0.9 0.2 -1.2 0 -2.5 -0.5 -2.9z m100.2 -0.6 c2.2 -1.4 3.2 -2.3 2.2 -2 -1 0.3 -3.2 0.6 -4.8 0.6 -2.2 0 -2.9 0.5 -2.9 2 0 2.6 0.7 2.5 5.5 -0.6z m11.4 -23.3 c0.8 -0.5 -0.1 -1 -2.6 -1.4 -4.6 -0.8 -9.7 -4 -12.7 -8 -1.7 -2.4 -2.1 -4.2 -2 -10.8 l0.1 -8 -2.6 0.6 c-5.6 1.4 -12.3 4.9 -14.6 7.7 -2.3 2.7 -2.4 3.2 -1.1 5.6 3.1 5.8 11.4 11.7 21.1 14.8 3.9 1.3 11.6 1 14.4 -0.5z m-117.4 -0.1 c1.9 -0.7 1.8 -0.8 -0.7 -1.8 -1.4 -0.6 -3.8 -2.7 -5.4 -4.7 -2.3 -3.1 -2.8 -4.8 -3.2 -11.6 -0.3 -4.3 -0.7 -7.9 -1 -7.9 -1.2 0 -17.2 9.2 -17.2 9.9 0 1.6 5.9 9 9.4 11.8 5.9 4.6 13.1 6.4 18.1 4.3z"/>
  <path d="M154.7 139.4 c-6.3 -4.2 -9.7 -9.8 -9.7 -15.8 0 -8.7 4 -11.6 13.7 -10.1 3.5 0.5 5.7 1.7 9.5 5.3 2.8 2.6 5.8 6.3 6.9 8.4 2.1 4.2 2.5 11.8 0.7 13.6 -0.7 0.7 -4.3 1.2 -9.3 1.2 -7 0 -8.5 -0.3 -11.8 -2.6z"/>
  <path d="M184.8 140.9 c-1.4 -0.8 -1.8 -2.4 -1.8 -7.3 0 -5.4 0.4 -6.9 2.9 -10.2 5.8 -7.9 10 -10.4 17.6 -10.4 6.5 0 8.8 2.4 9.2 9.6 0.5 7.5 -1.6 11.7 -8.1 16.2 -4.3 2.8 -5.6 3.2 -11.5 3.2 -3.6 0 -7.4 -0.5 -8.3 -1.1z"/>
 </g>
 <g fill="#202326">
  <path d="M186 241.6 c0 -1.3 2.8 -2.6 5.8 -2.6 0.6 0 1.2 0.9 1.2 2 0 1.6 -0.7 2 -3.5 2 -2.3 0 -3.5 -0.5 -3.5 -1.4z"/>
  <path d="M154 240 c0 -2.1 1 -2.4 4.8 -1.4 3.6 1 2.7 3.4 -1.3 3.4 -2.8 0 -3.5 -0.4 -3.5 -2z"/>
  <path d="M163 234.5 c-0.8 -0.2 -3.2 -0.6 -5.2 -1 -2.6 -0.4 -3.8 -1.1 -3.8 -2.2 0 -1.3 0.8 -1.5 5.3 -0.9 2.8 0.3 6.2 0.6 7.5 0.6 1.5 0 2.2 0.6 2.2 2 0 2 -1.7 2.4 -6 1.5z"/>
  <path d="M172 229 c0 -5.3 0.2 -6 2 -6 1.6 0 2 0.7 2 3.8 0 5.2 -1 8.2 -2.6 8.2 -1 0 -1.4 -1.6 -1.4 -6z"/>
  <path d="M188 233 c0 -1.6 0.7 -2 3.5 -2 4 0 4.9 2.4 1.3 3.4 -3.8 1 -4.8 0.7 -4.8 -1.4z"/>
  <path d="M141.3 230.3 c-2.6 -1 -1.3 -3.3 1.7 -3.3 2.3 0 3 0.4 3 2 0 2 -1.9 2.5 -4.7 1.3z"/>
  <path d="M211 228 c0 -1.6 0.7 -2 3.5 -2 3.9 0 4.6 1.4 1.6 3 -3.1 1.6 -5.1 1.2 -5.1 -1z"/>
  <path d="M127.5 225.1 c-10 -4.7 -24.1 -16.5 -17.7 -14.8 0.9 0.3 3.4 0.8 5.4 1.2 3.3 0.5 3.8 1 4.4 4 0.5 2.8 1.1 3.5 2.9 3.5 3.4 0 5.5 1 5.5 2.6 0 0.9 1.1 1.4 3 1.4 2.5 0 3 0.4 3 2.5 0 1.4 -0.1 2.5 -0.2 2.5 -0.2 0 -3 -1.3 -6.3 -2.9z"/>
  <path d="M233.7 216.7 c-0.3 -2.3 -0.5 -4.3 -0.4 -4.4 0.2 -0.2 14.8 -3.3 15.6 -3.3 0.3 0 -0.6 1.1 -1.9 2.5 -1.3 1.4 -3.4 2.5 -4.6 2.5 -1.5 0 -2.2 0.5 -1.9 1.3 0.3 0.6 -1 2.2 -2.9 3.4 l-3.4 2.2 -0.5 -4.2z"/>
  <path d="M165 218 c0 -1.6 0.7 -2 3.3 -2 4.7 0 7.7 1 7.7 2.6 0 1 -1.5 1.4 -5.5 1.4 -4.8 0 -5.5 -0.2 -5.5 -2z"/>
  <path d="M181 218.6 c0 -1.3 2.8 -2.6 5.8 -2.6 0.6 0 1.2 0.9 1.2 2 0 1.6 -0.7 2 -3.5 2 -2.3 0 -3.5 -0.5 -3.5 -1.4z"/>
  <path d="M144 217 c0 -2.1 2.3 -2.6 6.8 -1.4 4.1 1.1 2.6 3.4 -2.3 3.4 -3.8 0 -4.5 -0.3 -4.5 -2z"/>
  <path d="M198 217.6 c0 -1.4 2.9 -2.6 6.8 -2.6 1.5 0 2.2 0.6 2.2 2 0 1.7 -0.7 2 -4.5 2 -3.2 0 -4.5 -0.4 -4.5 -1.4z"/>
  <path d="M214 216.5 c0 -0.8 0.2 -1.5 0.4 -1.5 0.2 0 1.1 -0.3 2 -0.6 1.2 -0.4 1.6 0 1.6 1.5 0 1.4 -0.6 2.1 -2 2.1 -1.1 0 -2 -0.7 -2 -1.5z"/>
  <path d="M124 215 c0 -2.1 1 -2.4 4.8 -1.4 3.6 1 2.7 3.4 -1.3 3.4 -2.8 0 -3.5 -0.4 -3.5 -2z"/>
  <path d="M223 215 c0 -1.3 0.7 -2 2 -2 1.3 0 2 0.7 2 2 0 1.3 -0.7 2 -2 2 -1.3 0 -2 -0.7 -2 -2z"/>
  <path d="M159.8 210.3 c-3.3 -0.8 -2 -3.3 1.7 -3.3 2.8 0 3.5 0.4 3.5 2 0 2 -1.4 2.3 -5.2 1.3z"/>
  <path d="M207 208 c0 -1.6 0.7 -2 3.5 -2 4 0 4.9 2.4 1.3 3.4 -3.8 1 -4.8 0.7 -4.8 -1.4z"/>
  <path d="M128.5 208 c-1.1 -0.5 -1.8 -0.9 -1.5 -0.9 0.3 -0.1 2 -0.5 3.8 -1 2.8 -0.9 3.2 -0.7 3.2 1 0 2 -2 2.4 -5.5 0.9z"/>
  <path d="M209 201.9 l0 -3 3 2.1 c4.4 3.1 4.5 4 0.6 4 -3.3 0 -3.6 -0.2 -3.6 -3.1z"/>
  <path d="M227.8 198.3 c-3.3 -0.8 -2 -3.3 1.7 -3.3 2.8 0 3.5 0.4 3.5 2 0 2 -1.4 2.3 -5.2 1.3z"/>
  <path d="M123 196 c0 -1.6 0.7 -2 3.3 -2.1 2.3 -0.1 2.6 -0.3 1 -0.6 -1.6 -0.3 -2.3 -1.1 -2.3 -2.7 l0 -2.3 5.5 1.5 c6 1.7 7.5 4.2 2.5 4.2 -1.9 0 -3 0.5 -3 1.4 0 1.3 -2.8 2.6 -5.7 2.6 -0.7 0 -1.3 -0.9 -1.3 -2z"/>
  <path d="M241 196 c0 -1.6 0.7 -2 3.5 -2 3.9 0 4.6 1.4 1.6 3 -3.1 1.6 -5.1 1.2 -5.1 -1z"/>
  <path d="M108.3 195.4 c-4.3 -2.1 -4.2 -3.4 0.2 -3.4 3.1 0 3.5 0.3 3.5 2.5 0 1.4 -0.1 2.5 -0.2 2.5 -0.2 0 -1.8 -0.8 -3.5 -1.6z"/>
  <path d="M262.2 192.5 c2.9 -4.4 3.8 -4.4 3.8 0 0 3.2 -0.2 3.5 -3 3.5 l-3 0 2.2 -3.5z"/>
  <path d="M211.3 190.5 l-2.8 -2.4 3.8 -0.1 c3.3 0 3.7 0.3 3.7 2.5 0 3.1 -1.1 3.2 -4.7 0z"/>
  <path d="M250 191.6 c0 -1.3 3.9 -3 4.8 -2.1 0.8 0.7 -2 3.5 -3.4 3.5 -0.8 0 -1.4 -0.6 -1.4 -1.4z"/>
  <path d="M98.2 186.1 c-3.5 -4.7 -4.8 -8.2 -3.9 -10.5 0.5 -1.2 12.6 -8.6 14.1 -8.6 0.3 0 0.6 1.1 0.6 2.4 0 2.6 -1.6 3.6 -6.1 3.6 -2.2 0 -2.9 0.5 -2.9 2 0 1.1 -0.4 2 -1 2 -0.5 0 -1 0.7 -1 1.5 0 0.8 0.5 1.5 1 1.5 0.6 0 1 0.6 1 1.4 0 0.8 0.5 1.6 1.1 1.8 0.6 0.2 0.9 1.9 0.7 3.8 l-0.3 3.5 -3.3 -4.4z"/>
  <path d="M118 183.5 c0 -4.4 0.9 -4.4 3.8 0 l2.2 3.5 -3 0 c-2.8 0 -3 -0.3 -3 -3.5z"/>
  <path d="M160 176.5 c0 -2.8 0.4 -3.5 2 -3.5 1.6 0 2 0.7 2 3.5 0 2.8 -0.4 3.5 -2 3.5 -1.6 0 -2 -0.7 -2 -3.5z"/>
  <path d="M225 174 c0 -5.3 0.2 -6 1.9 -6 1.8 0 2 0.7 1.9 6 -0.1 5.2 -0.3 6 -1.9 6 -1.6 0 -1.9 -0.8 -1.9 -6z"/>
  <path d="M271.8 175.7 l-3.5 -3.2 -0.7 -17.5 c-0.7 -17.2 -2.3 -31.2 -4.9 -41.9 l-1.3 -5.4 -6.5 -2.5 -6.4 -2.4 -7.2 2.1 c-3.9 1.2 -7.7 2.1 -8.5 2.1 -0.7 0 -4 1.3 -7.3 2.9 -14.1 6.9 -17.6 8.1 -19.7 7 -2.7 -1.5 -7.4 -0.2 -11.2 3.1 -4 3.5 -10.6 5.3 -18 4.8 -4.4 -0.2 -5.6 0 -5.6 1.2 0 0.8 -2.1 -0.6 -4.8 -3.3 -5.2 -5.1 -10 -7.1 -13.7 -5.7 -2.2 0.8 -7.3 -0.9 -22 -7.5 -1.6 -0.7 -7.4 -2.7 -12.8 -4.4 l-9.8 -3 -7.5 2.6 c-5.5 2 -7.4 3.1 -7.4 4.5 0 1 -0.9 5 -1.9 9 -2.2 8.1 -4.1 28.8 -4.1 43.9 l0 9.7 -3.9 3.1 c-3 2.4 -4.9 3.1 -8.3 3.1 -4.2 0 -4.4 -0.2 -7.5 -5.3 -5.2 -8.7 -6.5 -26.1 -5.1 -70.2 0.3 -8.8 0.7 -10.8 3.5 -16.7 3.7 -7.9 11.1 -16.2 15.9 -18 1.9 -0.7 3.4 -1.5 3.4 -1.9 0 -0.4 1.3 -1.2 3 -1.9 2.1 -0.9 3 -1.9 3 -3.5 0 -1.8 0.9 -2.5 4.5 -3.5 7.2 -2 12.4 -0.8 22.7 5 5.1 2.9 9.5 5.5 9.8 5.9 0.7 0.8 19.5 9.6 25 11.6 5.5 2.1 22.8 5.5 27.5 5.5 1.9 0 3.5 0.5 3.5 1 0 2 21.1 -0.6 39.5 -5 15 -3.5 24.7 -5 33.1 -5 5.3 0 7.6 0.6 12.4 3.1 3.3 1.7 6 3.6 6 4.3 0 1.2 8.3 7.6 9.9 7.6 1.8 0 3.2 7 4.1 21 1.1 16.8 1.2 42.1 0.1 53.4 -0.6 7.1 -1 8.1 -3.9 10.7 -4.5 4 -8.7 3.9 -13.4 -0.4z"/>
  <path d="M207.3 169.5 c3.6 -3.2 4.7 -3.1 4.7 0 0 2.2 -0.4 2.5 -3.7 2.5 l-3.8 -0.1 2.8 -2.4z"/>
  <path d="M217 165.6 c0 -1.3 2.8 -2.6 5.8 -2.6 0.6 0 1.2 0.9 1.2 2 0 1.6 -0.7 2 -3.5 2 -2.3 0 -3.5 -0.5 -3.5 -1.4z"/>
  <path d="M210 156.4 c0 -2.1 0.5 -2.4 3.5 -2.4 2.2 0 3.5 0.5 3.5 1.3 0 0.8 -1.6 1.8 -3.5 2.4 -3.3 1.1 -3.5 1 -3.5 -1.3z"/>
  <path d="M122 153 c0 -1.7 0.7 -2 4 -2 3.1 0 4 0.4 4 1.8 0 1.3 -1 1.8 -4 2 -3.4 0.2 -4 0 -4 -1.8z"/>
  <path d="M226 153 c0 -1.6 0.7 -2 3.5 -2 2.8 0 3.5 0.4 3.5 2 0 1.6 -0.7 2 -3.5 2 -2.8 0 -3.5 -0.4 -3.5 -2z"/>
  <path d="M182 134.5 c0 -2.8 0.4 -3.5 1.9 -3.5 1.4 0 2 0.9 2.3 3.5 0.4 3.1 0.1 3.5 -1.9 3.5 -2 0 -2.3 -0.5 -2.3 -3.5z"/>
  <path d="M207.2 130.5 c2.9 -4.4 3.8 -4.4 3.8 0 0 3.2 -0.2 3.5 -3 3.5 l-3 0 2.2 -3.5z"/>
 </g>
 <g fill="#2b2d31">
  <path d="M187 233 c0 -1.6 0.7 -2 3.5 -2 4 0 4.9 2.4 1.3 3.4 -3.8 1 -4.8 0.7 -4.8 -1.4z"/>
  <path d="M172 223 c0 -5.3 0.2 -6 2 -6 1.6 0 2 0.7 2 3.8 0 5.2 -1 8.2 -2.6 8.2 -1 0 -1.4 -1.6 -1.4 -6z"/>
  <path d="M132.3 227.3 c-2.1 -0.8 -1.5 -3.3 0.7 -3.3 1.3 0 2 0.7 2 2 0 2 -0.5 2.3 -2.7 1.3z"/>
  <path d="M231 219.5 c0 -2.2 0.4 -2.5 3.8 -2.5 l3.7 0.1 -2.8 2.4 c-3.6 3.2 -4.7 3.1 -4.7 0z"/>
  <path d="M164 218 c0 -2.1 1 -2.4 4.8 -1.4 3.6 1 2.7 3.4 -1.3 3.4 -2.8 0 -3.5 -0.4 -3.5 -2z"/>
  <path d="M182 218.6 c0 -1.3 2.8 -2.6 5.8 -2.6 0.6 0 1.2 0.9 1.2 2 0 1.6 -0.7 2 -3.5 2 -2.3 0 -3.5 -0.5 -3.5 -1.4z"/>
  <path d="M214 217.6 c0 -2.3 2.2 -4.1 3.4 -2.9 0.3 0.4 0.6 1.7 0.6 3 0 1.6 -0.6 2.3 -2 2.3 -1.4 0 -2 -0.7 -2 -2.4z"/>
  <path d="M143 217 c0 -2.1 1 -2.4 4.8 -1.4 3.6 1 2.7 3.4 -1.3 3.4 -2.8 0 -3.5 -0.4 -3.5 -2z"/>
  <path d="M227 214.6 c0 -1.3 2.8 -2.6 5.8 -2.6 0.6 0 1.2 0.9 1.2 2 0 1.6 -0.7 2 -3.5 2 -2.3 0 -3.5 -0.5 -3.5 -1.4z"/>
  <path d="M241 213.7 c0 -1.9 0.8 -2.8 3.2 -3.6 5.2 -1.8 5.1 0.1 -0.2 3.9 l-3 2.1 0 -2.4z"/>
  <path d="M111.3 213.5 c-0.3 -0.9 -0.3 -1.8 0 -2.1 1.1 -1.1 6.7 0.8 6.7 2.2 0 2 -5.9 1.9 -6.7 -0.1z"/>
  <path d="M112.8 197.3 c-3.3 -0.8 -2 -3.3 1.7 -3.3 2.8 0 3.5 0.4 3.5 2 0 2 -1.4 2.3 -5.2 1.3z"/>
  <path d="M247 193.5 c0 -2.2 0.4 -2.5 3.8 -2.5 l3.7 0.1 -2.8 2.4 c-3.6 3.2 -4.7 3.1 -4.7 0z"/>
  <path d="M104.3 192.5 l-2.8 -2.4 3.8 -0.1 c3.3 0 3.7 0.3 3.7 2.5 0 3.1 -1.1 3.2 -4.7 0z"/>
  <path d="M204 182.1 c-1.6 -3.1 -1.2 -5.1 1 -5.1 1.6 0 2 0.7 2 3.5 0 3.9 -1.4 4.6 -3 1.6z"/>
  <path d="M66.2 174.1 c-3.3 -4.2 -4 -6 -4.5 -11.1 -0.4 -3.4 -1.3 -8.5 -2.1 -11.3 -0.9 -3.4 -1.6 -13 -2 -28 -0.6 -26.8 0.3 -32 8.1 -47.7 4.4 -8.9 5.8 -10.6 22.3 -27.1 25.3 -25.4 39.6 -33.9 57.6 -33.9 8.4 0 9.9 1.7 9 10.2 -0.4 3.5 -1 8.6 -1.2 11.5 -0.3 2.8 -0.1 7.6 0.5 10.5 1 4.4 2.1 6.3 6.4 10.7 2.9 2.9 7 6.2 9.2 7.4 7.1 3.6 22.7 7.8 31.1 8.4 9.1 0.6 15.5 -1 28.1 -6.9 8.1 -3.8 17.3 -12.5 17.3 -16.3 0 -2.3 0.3 -2.5 5.3 -2.5 5 0 5.6 0.3 13.8 6.9 11.5 9.3 17.3 16 21.8 25.6 6.1 12.7 6.5 15.8 6.6 46 0 22.8 -0.3 28.5 -1.9 36.5 -1.6 7.7 -2.5 10.1 -5 12.8 -2.5 2.6 -3.7 3.2 -7.3 3.2 -4.4 0 -9.3 -3 -9.3 -5.7 0 -0.7 -0.7 -1.3 -1.5 -1.3 -1.2 0 -1.5 -2 -1.5 -12 0 -9.6 0.3 -12 1.4 -12 1.9 0 2.6 3.2 2.6 12.9 0 8.3 0 8.3 3.6 11.7 3.9 3.5 5.2 3.5 8.8 -0.4 2.3 -2.7 3.1 -10.3 3.1 -31.7 0 -29 -1.7 -46.5 -4.6 -46.5 -1.6 0 -10.9 -7.1 -10.6 -8.2 0.1 -0.6 -0.5 -1.3 -1.3 -1.5 -1.3 -0.4 -1.3 -0.3 0 0.6 2.6 1.9 0.1 1.2 -4.8 -1.3 -3.4 -1.7 -6.8 -2.5 -12.4 -2.7 -4.2 -0.3 -7.2 -0.1 -6.6 0.2 1.4 0.9 -10.5 2.1 -12.7 1.3 -1.4 -0.6 -1.6 -0.4 -1 0.6 0.6 1 0.2 1.2 -1.9 0.8 -1.4 -0.3 -2.6 -0.1 -2.6 0.4 0 0.5 -1 0.6 -2.1 0.3 -1.6 -0.5 -1.9 -0.4 -1.4 0.5 0.5 0.9 0.1 1 -1.5 0.5 -1.4 -0.5 -2 -0.3 -1.6 0.3 0.9 1.4 -4.7 2.5 -8.6 1.7 -2.6 -0.5 -3 -0.4 -1.8 0.5 1.2 0.9 0.6 1.1 -2.7 0.7 -2.4 -0.3 -4.3 -0.2 -4.3 0.2 0 0.4 -6.2 0.7 -13.7 0.8 -8.7 0.1 -12.9 -0.2 -11.3 -0.8 1.6 -0.5 0.5 -0.6 -3.2 -0.2 -6.3 0.6 -21.2 -2.2 -20.3 -3.8 0.3 -0.5 -0.1 -0.6 -1 -0.3 -1.8 0.7 -25.3 -7.3 -27.4 -9.3 -0.7 -0.8 -2.6 -1.7 -4.2 -2 -1.6 -0.3 -2.9 -1 -2.9 -1.5 0 -0.5 -0.4 -0.7 -0.9 -0.4 -0.5 0.3 -2.4 -0.4 -4.2 -1.7 -5.3 -3.5 -8.7 -4.7 -13.2 -4.7 -5.1 0 -11.2 1.6 -13 3.4 -0.7 0.7 -2.3 1.7 -3.5 2 -3.3 1.1 -8.3 5.6 -7.5 6.8 0.3 0.7 0.1 0.8 -0.5 0.4 -1.3 -0.8 -7.5 7.2 -6.6 8.5 0.3 0.5 0 0.9 -0.6 0.9 -0.6 0 -0.9 0.4 -0.6 0.9 0.4 0.5 0.1 1.1 -0.4 1.3 -0.6 0.2 -1.3 1.2 -1.5 2.3 -0.2 1.1 -0.4 2 -0.5 2 -1.8 0 -3.2 43.9 -1.7 55 0.4 3.3 1 8.3 1.3 11 0.7 5.7 6 15.5 8.4 15.5 0.9 0 2.1 -0.5 2.8 -1.2 0.9 -0.9 1.2 -0.5 1.2 2 0 3.1 -0.1 3.2 -4.4 3.2 -4.1 0 -4.7 -0.4 -8.4 -4.9z m201.8 -90.6 c0 -0.2 -1.8 -1.4 -4 -2.5 -2.6 -1.3 -5.6 -2 -9.2 -1.8 l-5.3 0.1 6 0.6 c3.3 0.4 7.4 1.4 9 2.3 3.4 1.9 3.5 2 3.5 1.3z m-126.1 -3.9 c-1 -0.9 -14.9 -7.6 -14.9 -7.1 0 0.6 13.1 7.4 14.4 7.5 0.5 0 0.7 -0.2 0.5 -0.4z m-27.9 -15.1 c0 -0.7 -7 -4.1 -10 -4.9 -1.4 -0.4 0.2 0.7 3.5 2.3 7.1 3.4 6.5 3.2 6.5 2.6z"/>
  <path d="M203 175.1 c0 -0.6 1.1 -2.3 2.5 -3.8 l2.4 -2.8 0.1 3.8 c0 3.3 -0.3 3.7 -2.5 3.7 -1.4 0 -2.5 -0.4 -2.5 -0.9z"/>
  <path d="M118 165 c0 -1.3 0.7 -2 2 -2 1.8 0 1.9 0.3 1 2 -0.6 1.1 -1.5 2 -2 2 -0.6 0 -1 -0.9 -1 -2z"/>
  <path d="M84 146.8 c0 -3 1.3 -5.8 2.6 -5.8 0.9 0 1.4 1.2 1.4 3.5 0 2.8 -0.4 3.5 -2 3.5 -1.1 0 -2 -0.6 -2 -1.2z"/>
  <path d="M266 132.5 c0 -4 2.4 -4.9 3.4 -1.2 1 3.7 0.7 4.7 -1.4 4.7 -1.6 0 -2 -0.7 -2 -3.5z"/>
  <path d="M85 133.8 c0 -3 1.3 -5.8 2.6 -5.8 0.9 0 1.4 1.2 1.4 3.5 0 2.8 -0.4 3.5 -2 3.5 -1.1 0 -2 -0.6 -2 -1.2z"/>
  <path d="M86 123.8 c0 -3 1.3 -5.8 2.6 -5.8 0.9 0 1.4 1.2 1.4 3.5 0 2.8 -0.4 3.5 -2 3.5 -1.1 0 -2 -0.6 -2 -1.2z"/>
  <path d="M164.5 120.4 c-2.3 -1.9 -2.5 -2.4 -1 -2 1.1 0.3 3.2 0.8 4.8 1.2 1.5 0.3 2.7 1.2 2.7 2 0 2.2 -3.2 1.6 -6.5 -1.2z"/>
  <path d="M186 121.6 c0 -1.4 5.6 -3.3 6.7 -2.2 0.3 0.3 0.3 1.2 0 2.1 -0.8 2 -6.7 2.1 -6.7 0.1z"/>
  <path d="M263.6 118.9 c-1 -5.1 -0.7 -7.9 0.8 -7.9 0.8 0 1.8 1.9 2.5 4.4 1.5 6 1.4 6.6 -0.8 6.6 -1.3 0 -2 -1 -2.5 -3.1z"/>
  <path d="M88 115.8 c0 -3 1.3 -5.8 2.6 -5.8 0.9 0 1.4 1.2 1.4 3.5 0 2.8 -0.4 3.5 -2 3.5 -1.1 0 -2 -0.6 -2 -1.2z"/>
  <path d="M143 115.3 c-1.9 -0.8 -3.7 -1.8 -4 -2.3 -0.3 -0.4 -2.2 -1 -4.2 -1.4 -2.1 -0.4 -3.8 -1 -3.8 -1.4 0 -0.4 -2.3 -1.3 -5.2 -2 -2.8 -0.6 -5.4 -1.6 -5.7 -2.1 -0.3 -0.5 -2.5 -1.2 -4.8 -1.6 -3.7 -0.6 -4.3 -1 -4.3 -3.1 0 -1.4 0.3 -2.3 0.8 -2.1 0.4 0.2 4.8 1.7 9.7 3.2 5 1.4 11.1 3.6 13.6 4.7 2.6 1.1 7.5 3.2 10.9 4.7 3.5 1.4 6.5 3.2 6.8 3.9 0.5 1.7 -5.4 1.4 -9.8 -0.5z"/>
  <path d="M204.1 116.3 c-0.7 -0.3 2.1 -2 6.3 -3.9 4.2 -1.8 10 -4.4 12.9 -5.8 2.8 -1.4 6.3 -2.8 7.7 -3 1.4 -0.3 2.5 -0.5 2.5 -0.6 0 -0.1 1.5 -0.4 3.3 -0.6 2.7 -0.4 3.2 -0.2 3.2 1.5 0 1.6 -1.5 2.4 -8.4 4.5 -4.6 1.4 -8.7 2.6 -9.1 2.6 -0.3 0 -1.3 0.7 -2.1 1.5 -0.9 0.8 -2.4 1.5 -3.5 1.5 -1.1 0 -2.7 0.7 -3.5 1.5 -1.5 1.5 -6.5 1.9 -9.3 0.8z"/>
  <path d="M92.2 104.8 c0.3 -0.7 1.9 -1.8 3.6 -2.5 3.1 -1.3 3.2 -1.2 3.2 1.2 0 2.2 -0.4 2.5 -3.6 2.5 -2.3 0 -3.4 -0.4 -3.2 -1.2z"/>
  <path d="M242 102 c0 -1.2 3.3 -3 5.4 -3 0.9 0 1.6 0.9 1.6 2 0 1.6 -0.7 2 -3.5 2 -1.9 0 -3.5 -0.4 -3.5 -1z"/>
  <path d="M103 101 c0 -1.4 3.9 -3.2 5.6 -2.6 0.8 0.3 1.4 1.2 1.4 2.1 0 1.1 -1 1.5 -3.5 1.5 -1.9 0 -3.5 -0.4 -3.5 -1z"/>
 </g>
 <g fill="#33363a">
  <path d="M164.8 234.3 c-3.3 -0.8 -2 -3.3 1.7 -3.3 2.8 0 3.5 0.4 3.5 2 0 2 -1.4 2.3 -5.2 1.3z"/>
  <path d="M186 233 c0 -1.6 0.7 -2 3.5 -2 4 0 4.9 2.4 1.3 3.4 -3.8 1 -4.8 0.7 -4.8 -1.4z"/>
  <path d="M194 232 c0 -1.6 0.7 -2 3.5 -2 4 0 4.9 2.4 1.3 3.4 -3.8 1 -4.8 0.7 -4.8 -1.4z"/>
  <path d="M145.8 231.3 c-3.3 -0.8 -2 -3.3 1.7 -3.3 2.8 0 3.5 0.4 3.5 2 0 2 -1.4 2.3 -5.2 1.3z"/>
  <path d="M132.3 227.3 c-0.8 -0.3 -1.3 -2.2 -1.3 -4.4 0 -3.2 0.3 -3.9 2 -3.9 1.7 0 2 0.7 2 3.9 0 4.1 -0.6 5.1 -2.7 4.4z"/>
  <path d="M172 223 c0 -2.8 0.4 -4 1.4 -4 2.2 0 2.8 1.7 2.1 5 -1 4.6 -3.5 3.8 -3.5 -1z"/>
  <path d="M183 218.6 c0 -0.7 1 -1.6 2.3 -2 4.1 -1.1 5.7 -0.7 5.7 1.4 0 1.7 -0.7 2 -4 2 -2.7 0 -4 -0.4 -4 -1.4z"/>
  <path d="M201 217.6 c0 -1.3 2.8 -2.6 5.8 -2.6 0.6 0 1.2 0.9 1.2 2 0 1.6 -0.7 2 -3.5 2 -2.3 0 -3.5 -0.5 -3.5 -1.4z"/>
  <path d="M237 215.5 c0 -2.2 0.4 -2.5 3.8 -2.5 l3.7 0.1 -2.8 2.4 c-3.6 3.2 -4.7 3.1 -4.7 0z"/>
  <path d="M222.3 196.5 c-4.3 -1.8 -4.2 -3.5 0.2 -3.5 3.1 0 3.5 0.3 3.5 2.5 0 1.4 -0.1 2.5 -0.2 2.5 -0.2 -0.1 -1.8 -0.7 -3.5 -1.5z"/>
  <path d="M206.1 185.4 c-2.7 -3.5 -2.6 -4.4 0.4 -4.4 2.2 0 2.5 0.4 2.5 3.5 0 1.9 -0.2 3.5 -0.4 3.5 -0.3 0 -1.4 -1.2 -2.5 -2.6z"/>
  <path d="M96 182.3 c-0.8 -1.6 -1.6 -3.1 -1.8 -3.5 -0.2 -0.5 0.8 -0.8 2.2 -0.8 2.3 0 2.6 0.4 2.6 3.5 0 4.2 -1.2 4.5 -3 0.8z"/>
  <path d="M65.3 175.5 c-2.8 -2.8 -4.3 -5.3 -4.3 -7 0 -1.4 -0.9 -5.8 -2 -9.8 -1.3 -4.7 -2.4 -13.1 -3.1 -24.1 -0.9 -14.3 -0.8 -18.7 0.6 -29.5 2.3 -17.3 3 -20.1 8.5 -31.7 8.5 -17.9 28.1 -38.8 49.5 -52.7 7.2 -4.6 14.4 -9.1 16.2 -10 6.3 -3.3 19.5 -4.7 44 -4.7 21.8 0 24.1 0.2 34.1 2.6 12.5 3.1 15.1 4.3 29.2 13.6 15.5 10.3 39.8 34.9 47.7 48.3 5 8.5 8 17.5 9.8 29 1.5 9.7 1.5 13.2 0.4 29.5 -0.6 10.2 -1.1 20.2 -1 22.4 0 2.1 -1 8.2 -2.4 13.5 -2 8.1 -2.9 10 -5.7 12.3 -2.6 2.1 -4.4 2.8 -8 2.8 l-4.8 0 0 -3.7 c0 -3.4 0.1 -3.5 1.8 -2 2.7 2.5 4.4 2.1 7.8 -1.5 5.2 -5.6 6.9 -17.3 6.9 -46.3 -0.1 -27 -0.6 -30.5 -6.6 -43 -4.5 -9.6 -10.3 -16.3 -21.8 -25.6 -8.8 -7.1 -12.6 -8.5 -12.8 -4.9 -0.2 2.9 -5.8 9.5 -10.7 12.8 -4.9 3.4 -16.2 8.4 -22.8 10.2 -7.8 2.1 -24.4 0.8 -35.8 -2.7 -12.6 -3.9 -16.5 -6.1 -22.7 -12.4 -4.1 -4.1 -5.4 -6.3 -6.3 -10.1 -1.4 -6.6 -1.3 -18.7 0.2 -24.2 1.1 -4 1 -4.7 -0.7 -6.6 -2.1 -2.4 -5.9 -2.5 -13 -0.6 -15.3 4.2 -25.3 11.2 -46.5 32.5 -16.5 16.5 -17.9 18.2 -22.3 27.1 -7.8 15.6 -8.6 20.6 -7.7 46.5 0.4 12.3 1.2 23.2 1.8 24.7 0.6 1.5 1.4 5.7 1.8 9.3 0.6 5.7 1.3 7.3 4.6 11.5 4.3 5.5 5.2 5.8 8 3.3 1.7 -1.5 1.8 -1.4 1.8 2 l0 3.7 -4.7 0 c-4.4 0 -5.2 -0.4 -9 -4.5z m152.9 -112.9 c2.4 -1.4 5.6 -3.9 7.2 -5.5 2.6 -2.7 2.7 -3.2 1.7 -6.4 -1.8 -5.2 -9.2 -15.3 -13.7 -18.7 -2.3 -1.6 -6.8 -3.6 -10.4 -4.4 -5.4 -1.3 -7.4 -1.3 -15.7 0 -5.5 0.8 -10.9 2.2 -12.7 3.3 -3.3 2.1 -7.6 8.6 -7.6 11.5 0 2.6 3.5 8.8 6.7 11.8 3.5 3.3 16.4 9.5 22.4 10.8 7.4 1.5 17.2 0.5 22.1 -2.4z"/>
  <path d="M114 165.6 c0 -1.4 5.6 -3.3 6.7 -2.2 0.3 0.3 0.3 1.2 0 2.1 -0.8 2 -6.7 2.1 -6.7 0.1z"/>
  <path d="M222 164.6 c0 -1.3 2.8 -2.6 5.8 -2.6 0.6 0 1.2 0.9 1.2 2 0 1.6 -0.7 2 -3.5 2 -2.3 0 -3.5 -0.5 -3.5 -1.4z"/>
  <path d="M262 110.5 c0 -4 2.4 -4.9 3.4 -1.2 1 3.7 0.7 4.7 -1.4 4.7 -1.6 0 -2 -0.7 -2 -3.5z"/>
  <path d="M134.8 112.3 c-1 -0.2 -1.8 -0.9 -1.8 -1.4 0 -0.5 -0.9 -0.9 -2 -0.9 -1.3 0 -2 -0.7 -2 -2 0 -2.2 2 -2.6 4.8 -1 0.9 0.5 3.4 1.6 5.5 2.4 2 0.8 3.7 2 3.7 2.5 0 1.1 -4.9 1.3 -8.2 0.4z"/>
  <path d="M217 111 c0 -1.1 2.7 -2.6 8.1 -4.5 3.8 -1.4 3.9 -1.4 3.9 0.8 0 1.7 -0.9 2.6 -3.3 3.5 -4 1.4 -8.7 1.6 -8.7 0.2z"/>
  <path d="M105 100.6 c0 -1.8 2.2 -2.6 4.9 -1.9 3.5 0.9 2.5 3.3 -1.4 3.3 -2.3 0 -3.5 -0.5 -3.5 -1.4z"/>
 </g>
 <g fill="#53372e">
  <path d="M153.8 244.5 c-10.3 -1.8 -16.4 -3.6 -29.9 -9.1 -15.8 -6.3 -26.1 -12.6 -34.4 -20.8 -7 -7 -7 -7 -4.1 -7.4 2 -0.2 3.6 0.4 5.5 2.1 1.4 1.4 3.5 2.9 4.6 3.5 1.9 1 2 0.7 1.6 -7.5 l-0.3 -8.5 4.1 2.7 c4.2 2.8 5.5 4.3 2.4 2.7 -4.6 -2.4 -5.6 1.8 -1.9 7.7 5.9 9.3 22.5 20.7 35.6 24.5 23.9 6.9 56.2 7.1 77.8 0.4 14.4 -4.4 28.9 -13.3 38.6 -23.8 5.9 -6.4 6.8 -9.6 2.8 -9.4 -2 0.1 -1.8 -0.5 2.2 -4.5 2.5 -2.5 5.6 -7.2 7 -10.3 2.9 -6.6 4.6 -7.4 4.6 -2.3 0 1.9 -0.4 3.5 -1 3.5 -0.5 0 -1 1.1 -1 2.5 0 1.8 -0.5 2.5 -2 2.5 -1.5 0 -2 0.7 -2 2.8 0 1.5 -0.5 3.3 -1.2 4 -0.7 0.7 -1.1 3 -0.9 5.3 0.2 3.4 -0.1 4.1 -1.8 4.6 -3.4 0.9 -2.5 3.3 1.2 3.3 l3.2 0.1 -5.5 5 c-12.9 11.9 -39.8 23.3 -63 26.9 -8.9 1.3 -32.8 1 -42.2 -0.5z"/>
  <path d="M141.8 230.3 c-2.5 -0.6 -2.3 -4.3 0.2 -4.3 1.5 0 2 0.7 2 2.5 0 1.4 -0.1 2.4 -0.2 2.4 -0.2 -0.1 -1.1 -0.3 -2 -0.6z"/>
  <path d="M32.7 212.4 c-7 -1 -9.7 -2 -13.2 -4.5 -2.5 -1.8 -4.5 -3.6 -4.5 -4.1 0 -1.3 6.3 -0.9 9.3 0.7 10.2 5.3 33.2 2.7 45.9 -5.2 6.5 -4 11.8 -2.7 11.8 2.9 0 2.6 -0.2 2.7 -2 1.6 -1.6 -1 -2.4 -1 -4 0 -4.5 2.8 -17 7.1 -25.1 8.6 -4.7 0.9 -8.7 1.6 -9 1.5 -0.2 -0.1 -4.4 -0.7 -9.2 -1.5z"/>
  <path d="M297.1 211.5 c-6.8 -1.5 -15.6 -4.8 -20.5 -7.7 -2.2 -1.3 -3.3 -1.4 -4.3 -0.6 -1 0.8 -1.3 0.3 -1.3 -2.6 0 -3.5 0.1 -3.6 3.9 -3.6 2.2 0 4.1 0.3 4.3 0.8 0.4 1 8.3 4.6 14.8 6.8 4.1 1.4 8.4 1.8 16.5 1.8 9.9 -0.1 11.5 -0.3 16.2 -2.7 5.1 -2.6 11.3 -3.6 11.3 -1.8 0 0.5 -2.8 2.7 -6.3 4.9 -9.3 5.9 -21.4 7.5 -34.6 4.7z"/>
  <path d="M160.8 210.3 c-1 -0.2 -1.8 -1.1 -1.8 -1.9 0 -1.1 1.5 -1.4 6.5 -1.4 5.8 0 6.5 0.2 6.5 2 0 1.7 -0.6 2 -4.7 1.9 -2.7 -0.1 -5.6 -0.3 -6.5 -0.6z"/>
  <path d="M181 209 c0 -1.8 0.7 -2 5.5 -2 4 0 5.5 0.4 5.5 1.4 0 1.6 -3 2.6 -7.7 2.6 -2.6 0 -3.3 -0.4 -3.3 -2z"/>
  <path d="M140.8 209.5 c-0.2 -0.3 -3.7 -0.7 -7.8 -1 -4 -0.2 -7.5 -0.6 -7.7 -0.9 -0.2 -0.2 1.3 -0.7 3.3 -1.1 5 -0.9 11.8 -4.5 17.9 -9.4 4.6 -3.7 5 -3.9 5.3 -2 0.5 3.1 -0.5 4.9 -2.8 4.9 -1.2 0 -2 0.7 -2 1.6 0 0.9 -0.9 1.8 -2 2.1 -2.8 0.7 -2.5 2.3 0.5 2.3 1.8 0 2.5 0.5 2.5 2 0 1.6 -0.7 2 -3.3 2 -1.9 0 -3.6 -0.2 -3.9 -0.5z"/>
  <path d="M202 208.1 c0 -1.8 0.6 -2.1 4 -2.1 3.8 0 4 -0.2 4 -2.9 0 -2.7 -0.3 -3 -3.7 -3.3 -3.1 -0.2 -3.9 -0.7 -4.1 -2.5 -0.2 -1.5 -1 -2.3 -2.4 -2.3 -1.1 0 -2.2 -0.8 -2.5 -2 -0.3 -1.1 -0.8 -2 -1.2 -2 -1.3 0 -4.1 -7 -4.1 -10 0 -4.1 2.3 -3.8 3.8 0.4 2.9 8 14.4 20 23.5 24.5 3.7 1.9 3.8 2 1.6 2.6 -1.3 0.3 -3.7 0.5 -5.4 0.4 -1.6 0 -5.4 0.3 -8.2 0.7 -5 0.6 -5.3 0.5 -5.3 -1.5z"/>
  <path d="M90 194.5 c0 -0.8 -0.4 -1.5 -1 -1.5 -0.5 0 -1 -1.3 -1 -3 0 -1.9 -0.5 -3 -1.4 -3 -1.7 0 -2.6 -2.2 -2.6 -6.6 0 -4.9 2.4 -4.3 3.9 0.9 0.7 2.3 2.8 6.6 4.7 9.5 l3.4 5.2 -3 0 c-2 0 -3 -0.5 -3 -1.5z"/>
  <path d="M156.6 186.6 c4.1 -6.2 4.6 -11.2 1.9 -17 -4.5 -9.4 -22.9 -16.7 -37.2 -14.6 -13.9 2 -34.3 13.6 -34.3 19.6 0 0.8 -0.7 1.4 -1.5 1.4 -2.3 0 -1.9 -6.2 0.5 -9.3 1.1 -1.4 3 -2.9 4.2 -3.3 1.2 -0.4 2.8 -1.3 3.6 -2 0.7 -0.8 2.4 -1.4 3.8 -1.4 1.5 0 2.4 -0.6 2.4 -1.5 0 -1 1.1 -1.5 3.5 -1.5 2.2 0 3.5 -0.5 3.5 -1.3 0 -2 6.4 -3.7 16.5 -4.3 10.3 -0.7 19.4 1 27.5 5.1 4 2 5 3 5 5 0 2 0.5 2.5 2.5 2.5 1.8 0 2.5 0.5 2.5 1.9 0 1.1 0.5 2.1 1.2 2.3 0.7 0.3 1.4 3.2 1.6 7.1 0.4 5.7 0.2 6.7 -1.2 6.7 -1.2 0 -1.6 0.9 -1.6 3.5 0 1.9 -0.4 3.5 -1 3.5 -0.5 0 -1 0.7 -1 1.5 0 1 -1 1.5 -3 1.5 l-3 0 3.6 -5.4z"/>
  <path d="M73 178 c0 -0.5 0.5 -1 1 -1 0.6 0 2.2 -1.2 3.5 -2.7 l2.4 -2.8 0.1 3.8 c0 3.6 -0.1 3.7 -3.5 3.7 -1.9 0 -3.5 -0.4 -3.5 -1z"/>
  <path d="M273 175.3 l0.1 -3.8 2.4 2.8 c1.3 1.5 2.9 2.7 3.5 2.7 0.5 0 1 0.5 1 1 0 0.6 -1.6 1 -3.5 1 -3.4 0 -3.5 -0.1 -3.5 -3.7z"/>
  <path d="M192.3 172.4 c0.2 -2.6 0.9 -4.9 1.4 -5.3 0.5 -0.3 1.2 -1.4 1.6 -2.3 0.3 -1 1.3 -1.8 2.1 -1.8 0.7 0 1.6 -0.9 1.9 -2 0.3 -1.1 1.2 -2 2.1 -2 0.9 0 1.6 -0.4 1.6 -0.8 0 -1.1 4.6 -3.2 7 -3.2 1.1 0 2 -0.4 2 -0.9 0 -1.2 11.2 -3.1 18.2 -3.1 6.5 0 16.8 1.9 16.8 3.1 0 0.5 1.1 0.9 2.4 0.9 1.4 0 3.1 0.7 4 1.5 0.8 0.8 1.9 1.5 2.5 1.5 0.6 0 1.1 0.9 1.1 2 0 1.6 0.7 2 3 2 2 0 3 0.5 3 1.5 0 0.8 0.9 1.5 1.9 1.5 2.8 0 6.1 4.7 6.1 8.6 0 4 -2.5 4.7 -3.4 1 -1.3 -5.1 -16.9 -16.1 -26.4 -18.6 -18.1 -4.7 -41.4 4.1 -45.4 17.2 -1.7 5.7 -4.2 5.1 -3.5 -0.8z"/>
  <path d="M84 149.8 c0 -4.8 1 -7.8 2.6 -7.8 1 0 1.4 1.5 1.4 5.5 0 4.8 -0.2 5.5 -2 5.5 -1.6 0 -2 -0.7 -2 -3.2z"/>
  <path d="M162 141 c0 -1.7 0.7 -2 5 -2 3.9 0 5.3 -0.4 6.2 -2 1.9 -2.9 2.8 -2.5 2.8 1.4 0 4 -1.1 4.6 -8.6 4.6 -4.7 0 -5.4 -0.2 -5.4 -2z"/>
  <path d="M186 141.9 c-3.3 -1.3 -4 -2.6 -4 -7.6 0 -3.2 0.4 -4.3 1.5 -4.3 1 0 1.5 -1 1.5 -3 0 -1.6 -0.4 -3 -1 -3 -0.5 0 -1 -0.6 -1 -1.4 0 -0.8 1.9 -1.8 4.8 -2.5 2.6 -0.7 5.6 -1.4 6.7 -1.8 1.5 -0.4 1.2 0.4 -1.6 3.3 -5 5.5 -5.9 6.8 -6.9 10.4 -2 7.1 6.8 9.4 15.3 4 l4.7 -3 0 3 c0 2 -0.5 3 -1.5 3 -0.8 0 -1.5 0.4 -1.5 1 0 2.4 -12.2 3.8 -17 1.9z"/>
  <path d="M154 139.1 c0 -0.5 -0.9 -1.1 -2.1 -1.4 -1.1 -0.3 -2.3 -1.5 -2.6 -2.6 -0.3 -1.2 -0.9 -2.1 -1.4 -2.1 -0.5 0 -0.9 -1.6 -0.9 -3.5 0 -1.9 0.3 -3.5 0.8 -3.5 0.4 0.1 1.9 1.8 3.4 4 1.5 2.2 4.3 5 6.3 6.2 4.4 2.9 4.4 3.8 0 3.8 -1.9 0 -3.5 -0.4 -3.5 -0.9z"/>
  <path d="M265.6 131.9 c-0.9 -9.1 -0.8 -10.9 0.8 -10.9 1.5 0 2.1 2.1 3.1 11.3 0.6 5.2 0.5 5.7 -1.3 5.7 -1.6 0 -2 -1 -2.6 -6.1z"/>
  <path d="M85 134.8 c0 -3 1.3 -5.8 2.6 -5.8 0.9 0 1.4 1.2 1.4 3.5 0 2.8 -0.4 3.5 -2 3.5 -1.1 0 -2 -0.6 -2 -1.2z"/>
  <path d="M172 130 c-1.1 -2.2 -3.6 -5.5 -5.5 -7.5 -3.9 -3.8 -3.6 -4.1 3.1 -2.4 3.4 0.9 4.5 1.6 4.1 2.8 -0.2 0.9 0.2 2.2 1 2.9 1.5 1.5 1.8 8.2 0.3 8.2 -0.5 0 -1.9 -1.8 -3 -4z"/>
  <path d="M209.1 127.3 c1.4 -3.7 0.2 -7.9 -2.8 -10.1 l-2.6 -1.9 3.1 -1.1 c4.3 -1.5 5.6 0.4 6 8.9 0.4 6.9 0.4 6.9 -2.2 6.9 -2.4 0 -2.5 -0.2 -1.5 -2.7z"/>
  <path d="M86 125.7 c0 -1.3 0.9 -5.7 2 -9.8 1.1 -4.1 2 -8.3 2 -9.4 0 -1.5 1.4 -2.5 6 -4.2 l6 -2.2 0 2.4 c0 1.9 -0.8 2.7 -3.9 3.6 -3.8 1.1 -3.9 1.3 -6 9.3 -1.2 4.4 -2.1 9.1 -2.1 10.4 0 1.5 -0.6 2.2 -2 2.2 -1.4 0 -2 -0.7 -2 -2.3z"/>
  <path d="M145 120.5 c0 -2.8 0.4 -3.5 2 -3.5 1.1 0 2 -0.7 2 -1.5 0 -1.6 1.8 -1.9 3.8 -0.6 1 0.6 0.7 1.2 -1.2 2.5 -1.4 0.9 -2.8 2.7 -3.2 4.1 -1 3.9 -3.4 3.1 -3.4 -1z"/>
  <path d="M139.3 114.3 c-0.7 -0.2 -1.3 -1.5 -1.3 -2.8 l0 -2.4 4.5 1.7 c5.3 1.9 6 4.2 1.3 4.1 -1.8 0 -3.9 -0.3 -4.5 -0.6z"/>
  <path d="M261.6 111 c-0.5 -3.1 -1.1 -4 -2.6 -4 -1.5 0 -2 -0.7 -2 -2.5 0 -2.9 -0.2 -2.9 4.4 -1 2.3 1 3.6 2.2 3.6 3.4 0 1 0.3 3.3 0.6 5 0.6 2.6 0.4 3.1 -1.3 3.1 -1.6 0 -2.2 -0.9 -2.7 -4z"/>
  <path d="M215.2 111.8 c0.3 -0.7 1.9 -1.8 3.6 -2.5 3.1 -1.3 3.2 -1.2 3.2 1.2 0 2.2 -0.4 2.5 -3.6 2.5 -2.3 0 -3.4 -0.4 -3.2 -1.2z"/>
  <path d="M129.2 110.1 c-0.8 -0.4 -1.2 -1.8 -1 -2.9 l0.3 -2.1 4.3 1.9 c2.3 1 4.2 2.4 4.2 3 0 1.2 -5.9 1.3 -7.8 0.1z"/>
  <path d="M234.2 104.8 c0.3 -0.7 3.6 -2.4 7.5 -3.8 6 -2 7.5 -2.2 9.7 -1.2 4.2 1.9 3.1 2.9 -3.9 3.7 -3.6 0.3 -6.5 1.1 -6.5 1.6 0 0.5 -1.6 0.9 -3.6 0.9 -2.4 0 -3.4 -0.4 -3.2 -1.2z"/>
  <path d="M108 101 c0 -2.2 2 -2.6 5.1 -1 3 1.6 2.3 3 -1.6 3 -2.8 0 -3.5 -0.4 -3.5 -2z"/>
 </g>
 <g fill="#3f4246">
  <path d="M165.8 234.3 c-3.3 -0.8 -2 -3.3 1.7 -3.3 2.8 0 3.5 0.4 3.5 2 0 2 -1.4 2.3 -5.2 1.3z"/>
  <path d="M156.8 233.3 c-3.3 -0.8 -2 -3.3 1.7 -3.3 2.8 0 3.5 0.4 3.5 2 0 2 -1.4 2.3 -5.2 1.3z"/>
  <path d="M199 231 c0 -1.6 0.7 -2 3.5 -2 4 0 4.9 2.4 1.3 3.4 -3.8 1 -4.8 0.7 -4.8 -1.4z"/>
  <path d="M132.3 227.3 c-0.9 -0.3 -1.3 -2.7 -1.3 -7 0 -5.6 0.2 -6.4 1.8 -6.1 1.4 0.3 1.7 1.4 1.7 6.7 0 6.6 -0.2 7.1 -2.2 6.4z"/>
  <path d="M172 221 c0 -2.7 0.4 -4 1.4 -4 1.6 0 2.6 3.2 1.9 6 -1 3.7 -3.3 2.3 -3.3 -2z"/>
  <path d="M229 220.5 c0 -2.2 0.4 -2.5 3.5 -2.5 4.3 0 4.4 1 0.6 3.3 -3.8 2.2 -4.1 2.2 -4.1 -0.8z"/>
  <path d="M185 218.6 c0 -1.3 2.8 -2.6 5.8 -2.6 0.6 0 1.2 0.9 1.2 2 0 1.6 -0.7 2 -3.5 2 -2.3 0 -3.5 -0.5 -3.5 -1.4z"/>
  <path d="M214 217 c0 -1.1 0.5 -2 1 -2 0.6 0 1.3 -0.1 1.7 -0.2 0.3 -0.2 0.8 0.7 0.9 2 0.3 1.6 -0.1 2.2 -1.6 2.2 -1.3 0 -2 -0.7 -2 -2z"/>
  <path d="M223.2 215.3 c0.2 -1 1.3 -1.9 2.6 -2.1 1.7 -0.3 2.2 0.2 2.2 1.7 0 1.6 -0.6 2.1 -2.6 2.1 -1.9 0 -2.5 -0.5 -2.2 -1.7z"/>
  <path d="M117 214 c0 -2.1 1 -2.4 4.8 -1.4 3.6 1 2.7 3.4 -1.3 3.4 -2.8 0 -3.5 -0.4 -3.5 -2z"/>
  <path d="M234 213.6 c0 -1.3 2.8 -2.6 5.8 -2.6 0.6 0 1.2 0.9 1.2 2 0 1.6 -0.7 2 -3.5 2 -2.3 0 -3.5 -0.5 -3.5 -1.4z"/>
  <path d="M128 192 c0 -2.1 1 -2.4 4.8 -1.4 3.6 1 2.7 3.4 -1.3 3.4 -2.8 0 -3.5 -0.4 -3.5 -2z"/>
  <path d="M120 186.3 l0 -3.7 3.5 3.4 c1.9 1.9 3.5 3.5 3.5 3.7 0 0.2 -1.6 0.3 -3.5 0.3 -3.4 0 -3.5 -0.1 -3.5 -3.7z"/>
  <path d="M229 184.3 l0 -3.7 3.5 3.4 c1.9 1.9 3.5 3.5 3.5 3.7 0 0.2 -1.6 0.3 -3.5 0.3 -3.4 0 -3.5 -0.1 -3.5 -3.7z"/>
  <path d="M116 178.5 c0 -4 2.4 -4.9 3.4 -1.2 1 3.7 0.7 4.7 -1.4 4.7 -1.6 0 -2 -0.7 -2 -3.5z"/>
  <path d="M64.6 176 c-2.8 -3 -4.6 -5.8 -4.6 -7.3 0 -1.4 -0.7 -4.4 -1.6 -6.8 -0.9 -2.4 -1.7 -8.4 -1.9 -13.4 -0.2 -4.9 -0.7 -14 -1 -20 -0.7 -10.8 0.8 -27.1 3.6 -40 2.1 -9.6 11.1 -26.2 21.3 -39.1 7.9 -10 11.4 -13.5 20.8 -20.6 14.8 -11.3 30.1 -19.4 40.1 -21.3 19.9 -3.8 51.3 -3.6 70.1 0.5 14.7 3.2 33.5 14.2 48.3 28.3 11.8 11.2 21.4 23.9 27.7 36.4 5 10.1 5.8 12.5 7.6 24 1.7 10.6 2 15.3 1.5 27.3 -0.4 8 -1.1 17.2 -1.6 20.4 -0.6 4.1 -0.5 6.4 0.2 7.3 0.9 0.9 0.7 3.1 -0.5 8 -3.5 14.2 -3.6 14.3 -5.6 14.3 -1.3 0 -2 0.7 -2 1.8 0 2.9 -3.3 5.2 -7.3 5.2 -3.2 0 -3.7 -0.3 -3.7 -2.4 0 -1.9 0.4 -2.2 2.3 -1.9 1.4 0.2 3.4 -0.7 5.5 -2.4 2.8 -2.4 3.7 -4.3 5.7 -12.3 5.1 -19.6 5.9 -52.7 1.7 -68.2 -2.5 -9.4 -7.9 -20.3 -13.5 -27.8 -2.3 -3 -10.2 -11.6 -17.5 -19.1 -10.2 -10.5 -15.9 -15.4 -24.5 -21.2 -14.8 -9.8 -17.3 -11 -29.9 -14.1 -9.8 -2.4 -12.5 -2.6 -31.1 -2.6 -21.4 0 -34.9 1.5 -41 4.7 -1.8 0.8 -9.5 5.7 -17.2 10.8 -10.3 6.8 -16.4 11.8 -23.2 18.6 -20.9 21.4 -29.1 34.3 -33.8 53.2 -2.6 10.3 -2.7 11.6 -1.9 24.5 0.5 7.6 0.7 15.1 0.5 16.9 -0.1 1.7 1.1 8.1 2.8 14.2 1.7 6.1 3.1 12.2 3.1 13.6 0 3 7.6 11.5 10.3 11.5 1 0 1.7 0.8 1.7 2 0 1.6 -0.7 2 -3.4 2 -2.7 0 -4.2 -0.9 -8 -5z"/>
  <path d="M104 170.2 c0 -0.8 5.2 -4.2 6.4 -4.2 0.3 0 0.6 1.1 0.6 2.5 0 2.2 -0.4 2.5 -3.5 2.5 -1.9 0 -3.5 -0.4 -3.5 -0.8z"/>
  <path d="M226 166.5 c0 -3 0.3 -3.5 2.4 -3.5 2.3 0 2.4 0.2 1.3 3.5 -0.6 1.9 -1.6 3.5 -2.4 3.5 -0.8 0 -1.3 -1.3 -1.3 -3.5z"/>
  <path d="M148 117 c0 -0.5 -1.1 -1 -2.5 -1 -1.8 0 -2.5 -0.5 -2.5 -2 0 -2.4 1.5 -2.5 6.5 -0.5 3 1.3 3.5 1.8 2.5 3 -1.4 1.7 -4 2 -4 0.5z"/>
  <path d="M210.2 113.8 c0.3 -0.7 1.9 -1.8 3.6 -2.5 3.1 -1.3 3.2 -1.2 3.2 1.2 0 2.2 -0.4 2.5 -3.6 2.5 -2.3 0 -3.4 -0.4 -3.2 -1.2z"/>
  <path d="M125 106.5 c0 -2.4 0.1 -2.5 3.2 -1.2 4.6 1.9 4.8 3.7 0.4 3.7 -3.2 0 -3.6 -0.3 -3.6 -2.5z"/>
  <path d="M225 108 c0 -1.2 3.3 -3 5.4 -3 0.9 0 1.6 0.9 1.6 2 0 1.6 -0.7 2 -3.5 2 -1.9 0 -3.5 -0.4 -3.5 -1z"/>
  <path d="M115.8 105.3 c-2.2 -0.6 -2.4 -4.3 -0.3 -4.3 2.5 0 8.5 2.8 8.5 3.9 0 1.1 -4.9 1.3 -8.2 0.4z"/>
  <path d="M253.8 105.3 c-1.1 -0.3 -1.8 -1.4 -1.8 -2.8 0 -2.2 0.2 -2.4 2.8 -1.5 4.3 1.6 7.2 3.3 7.2 4.2 0 0.8 -5.2 0.9 -8.2 0.1z"/>
  <path d="M193.1 68 c-6 -1.3 -18.9 -7.5 -22.4 -10.8 -6.8 -6.4 -8.6 -16 -4.5 -23.4 3.3 -5.8 7.1 -7.6 19.8 -9.5 10.4 -1.5 11.8 -1.5 18.7 0 9.2 2 14.1 5.5 20 13.9 3.6 5.2 7.3 13.7 7.3 16.9 0 1.7 -6.3 7.9 -10.7 10.5 -4.1 2.4 -6 2.8 -14.3 3 -5.2 0.2 -11.5 -0.1 -13.9 -0.6z m21.5 -9 c2.3 -1.1 4.9 -2.9 5.8 -3.9 1.6 -1.8 1.6 -2.1 -0.4 -6.2 -3 -5.7 -11.6 -14.7 -16 -16.6 -4.5 -1.9 -17.2 -1.2 -22.4 1.2 -3.8 1.8 -7.6 6.9 -7.6 10.3 0 2.4 3.9 7.2 8.2 10.4 9.5 6.7 23.9 8.9 32.4 4.8z"/>
 </g>
 <g fill="#474a4f">
  <path d="M166.8 234.3 c-3.3 -0.8 -2 -3.3 1.7 -3.3 2.8 0 3.5 0.4 3.5 2 0 2 -1.4 2.3 -5.2 1.3z"/>
  <path d="M185 233 c0 -1.6 0.7 -2 3.5 -2 4 0 4.9 2.4 1.3 3.4 -3.8 1 -4.8 0.7 -4.8 -1.4z"/>
  <path d="M127.3 224.9 c-5.4 -2.7 -5.5 -4.2 -0.3 -3.7 3.8 0.3 4 0.2 4 -2.4 0 -3.1 2.4 -3.9 3.4 -1.2 0.7 1.9 -0.3 6.4 -1.4 6.4 -0.5 0 -1 0.7 -1.2 1.5 -0.3 1.3 -1 1.2 -4.5 -0.6z"/>
  <path d="M214 218.1 c0 -3.5 2.6 -4.9 3.4 -1.8 1 3.7 0.7 4.7 -1.4 4.7 -1.5 0 -2 -0.7 -2 -2.9z"/>
  <path d="M163 218 c0 -2.1 1 -2.4 4.8 -1.4 3.6 1 2.7 3.4 -1.3 3.4 -2.8 0 -3.5 -0.4 -3.5 -2z"/>
  <path d="M142 217 c0 -2.1 1 -2.4 4.8 -1.4 3.6 1 2.7 3.4 -1.3 3.4 -2.8 0 -3.5 -0.4 -3.5 -2z"/>
  <path d="M242.2 212.9 c0.2 -1.5 1.2 -2.5 3.1 -3 3.6 -1 3.4 0.4 -0.4 3.2 l-3.1 2.2 0.4 -2.4z"/>
  <path d="M223.8 196.9 c-2.9 -1.6 -2.1 -2.9 1.7 -2.9 2.8 0 3.5 0.4 3.5 2 0 2.2 -2.4 2.6 -5.2 0.9z"/>
  <path d="M129 194.5 c0 -2.2 0.4 -2.5 3.6 -2.5 4.4 0 4.2 1.8 -0.4 3.7 -3.1 1.3 -3.2 1.2 -3.2 -1.2z"/>
  <path d="M230 185.4 l0 -3.7 2.6 2.7 c1.5 1.4 3.1 2.6 3.5 2.6 0.5 0 0.9 0.5 0.9 1 0 0.6 -1.6 1 -3.5 1 -3.4 0 -3.5 -0.1 -3.5 -3.6z"/>
  <path d="M64.2 176.7 c-3.8 -3.8 -4.5 -5.4 -6.8 -14.6 -1.7 -6.6 -2.3 -10.6 -1.6 -11.3 0.5 -0.5 0.8 -5.3 0.6 -10.6 l-0.3 -9.7 0.9 8 c0.4 4.4 2 11.9 3.4 16.8 1.4 4.8 2.6 9.6 2.6 10.8 0 1.1 2.1 4.2 4.6 6.9 4.7 5 6.5 5.4 9.2 2.2 1 -1.3 1.2 -1 1.2 2.1 l0 3.7 -4.8 0 c-4.3 0 -5.2 -0.4 -9 -4.3z"/>
  <path d="M225 177.5 c0 -2.2 0.5 -3.5 1.3 -3.5 0.8 0 1.8 1.6 2.4 3.5 1.1 3.3 1 3.5 -1.3 3.5 -2.1 0 -2.4 -0.5 -2.4 -3.5z"/>
  <path d="M275 177.5 l0 -3.5 2 2 c1.1 1.1 2.4 2 2.9 2 0.5 0 2.6 -1.9 4.7 -4.2 3.4 -3.7 4.3 -5.7 6.4 -14.6 1.7 -7.2 2.6 -9.8 3.3 -8.7 0.4 0.8 1.2 1.3 1.8 1 1.3 -0.9 1.1 1.5 -1 10.2 -2.6 10.6 -2.9 11.3 -6.9 15.6 -3.2 3.3 -4.2 3.7 -8.4 3.7 l-4.8 0 0 -3.5z"/>
  <path d="M95 175.2 c0 -0.8 5.2 -4.2 6.4 -4.2 0.3 0 0.6 1.1 0.6 2.5 0 2.2 -0.4 2.5 -3.5 2.5 -1.9 0 -3.5 -0.4 -3.5 -0.8z"/>
  <path d="M116 169.5 c0 -2.8 0.4 -3.5 2 -3.5 2.1 0 2.4 1 1.4 4.8 -1 3.6 -3.4 2.7 -3.4 -1.3z"/>
  <path d="M294.8 135.5 c0.2 -7.1 0.6 -13.2 0.8 -13.4 0.7 -0.8 0.2 17.4 -0.5 21.9 -0.5 2.7 -0.6 -0.6 -0.3 -8.5z"/>
  <path d="M55.3 120.5 c0 -3.8 0.2 -5.3 0.4 -3.2 0.2 2 0.2 5.2 0 7 -0.2 1.7 -0.4 0.1 -0.4 -3.8z"/>
  <path d="M295.8 113 c-1.7 -21.8 -8.4 -38 -23.3 -56.2 -12 -14.6 -20.5 -22.8 -33.5 -31.9 -15.3 -10.9 -17.4 -12 -27.4 -14.7 -8.1 -2.2 -11.7 -2.5 -31.9 -2.9 -24.3 -0.5 -29.6 0 -44.1 4.2 -8.5 2.4 -15.8 6.9 -31.6 19 -17.8 13.7 -39.4 42.4 -44 58.4 -2 7.2 -2.7 6.8 -0.9 -0.7 2.3 -9.7 11.4 -26.2 21.3 -38.8 7.9 -10 11.4 -13.5 20.8 -20.6 14.8 -11.3 30.1 -19.4 40.1 -21.3 19.9 -3.8 51.3 -3.6 70 0.5 11.6 2.5 25.2 9.7 40.7 21.5 15 11.4 26.2 24.9 35.1 42.7 5.4 10.8 6.1 12.9 8 24.7 1.1 7.1 1.9 15.5 1.7 18.7 -0.3 5.7 -0.3 5.6 -1 -2.6z"/>
  <path d="M237 104 c0 -1.2 3.3 -3 5.4 -3 0.9 0 1.6 0.9 1.6 2 0 1.6 -0.7 2 -3.5 2 -1.9 0 -3.5 -0.4 -3.5 -1z"/>
  <path d="M187.9 61.6 c-10 -4.1 -16.3 -9.9 -17.5 -16.1 -0.7 -4.2 2.5 -11.5 6.1 -13.9 5.6 -3.7 23.9 -5 30.5 -2.2 4.4 1.8 13 10.8 16 16.5 4.1 8 2.7 12.1 -5.4 16.1 -6.3 3 -22 2.8 -29.7 -0.4z m20.3 -3.7 c2.1 -0.5 5 -2 6.4 -3.3 3.1 -2.6 2.8 -3.5 -3.5 -11.9 -4.5 -6.1 -10.4 -9.7 -15.7 -9.7 -6.1 0.1 -14.5 3.9 -16.7 7.7 -1.8 3.2 -1.8 3.3 0.3 6.2 2.7 3.9 7 6.9 13.9 9.7 6.2 2.6 9.8 2.9 15.3 1.3z"/>
 </g>
 <g fill="#52555a">
  <path d="M167.8 234.3 c-3.6 -0.9 -2 -3.3 2.2 -3.3 3.3 0 4 0.3 4 2 0 2 -2 2.4 -6.2 1.3z"/>
  <path d="M183 233 c0 -1.7 0.7 -2 4 -2 4.5 0 5.7 2.3 1.8 3.4 -4.2 1.1 -5.8 0.7 -5.8 -1.4z"/>
  <path d="M158 233.5 c-0.8 -0.2 -3.2 -0.6 -5.2 -1 -2.4 -0.4 -3.8 -1.1 -3.8 -2 0 -1.7 1.8 -1.8 9.8 -0.9 4.2 0.6 5.2 1 5.2 2.5 0 1.8 -1.8 2.2 -6 1.4z"/>
  <path d="M192 232 c0 -1.7 0.7 -2 4 -2 4.5 0 5.7 2.3 1.8 3.4 -4.2 1.1 -5.8 0.7 -5.8 -1.4z"/>
  <path d="M203 230.2 c0 -1.2 1.5 -2.1 5.3 -3.2 l5.2 -1.5 0.3 -5.3 c0.2 -3.6 0.7 -5.2 1.7 -5.2 1.6 0 2.8 5.1 2.3 10 -0.3 3.2 -0.7 3.6 -5.8 5.2 -7.2 2.2 -9 2.2 -9 0z"/>
  <path d="M141.8 229.9 c-2.9 -1.6 -2.1 -2.9 1.7 -2.9 2.8 0 3.5 0.4 3.5 2 0 2.2 -2.4 2.6 -5.2 0.9z"/>
  <path d="M131.8 226.9 c-2.4 -1.3 -2.3 -2.9 0.2 -2.9 1.3 0 2 0.7 2 2 0 2.3 0.1 2.3 -2.2 0.9z"/>
  <path d="M223 223.7 c0 -2.7 3.4 -4.7 8 -4.7 4.3 0 3.7 1.3 -1.9 4.3 -5.9 3.3 -6.1 3.3 -6.1 0.4z"/>
  <path d="M116.3 218.1 c-2.6 -2.1 -5.7 -4.9 -6.8 -6.1 l-2 -2.3 2 0.7 c1.1 0.4 7 1.5 13.2 2.4 11.8 1.7 12.6 2.3 11.5 7.5 -0.5 2.4 -3.2 2.2 -3.2 -0.3 0 -2.3 -0.7 -2.7 -7 -3.3 -2.5 -0.2 -3.7 -0.2 -2.7 0 1.8 0.5 2.5 5.3 0.8 5.3 -0.5 0 -3.1 -1.7 -5.8 -3.9z"/>
  <path d="M159 218 c0 -1.5 0.7 -2 2.8 -2 4.2 0 7.2 1.1 7.2 2.6 0 1 -1.4 1.4 -5 1.4 -4.3 0 -5 -0.3 -5 -2z"/>
  <path d="M186 218.6 c0 -0.7 1 -1.6 2.3 -2 4.1 -1.1 5.7 -0.7 5.7 1.4 0 1.7 -0.7 2 -4 2 -2.7 0 -4 -0.4 -4 -1.4z"/>
  <path d="M140 217 c0 -2.1 1.6 -2.5 5.8 -1.4 3.9 1.1 2.7 3.4 -1.8 3.4 -3.3 0 -4 -0.3 -4 -2z"/>
  <path d="M202 217.6 c0 -0.7 1 -1.6 2.3 -2 4.1 -1.1 5.7 -0.7 5.7 1.4 0 1.7 -0.7 2 -4 2 -2.7 0 -4 -0.4 -4 -1.4z"/>
  <path d="M228 214.6 c0 -1.4 1.4 -1.9 9.8 -3.1 3.7 -0.6 4.2 -0.5 4.2 1.3 0 1.5 -0.9 2.1 -4.6 2.6 -7.2 0.9 -9.4 0.8 -9.4 -0.8z"/>
  <path d="M243 212.1 c0 -1.2 0.9 -2 2.4 -2.3 2.8 -0.6 2.6 1.1 -0.4 3 -1.7 1 -2 1 -2 -0.7z"/>
  <path d="M228.8 198.3 c-3.3 -0.8 -2 -3.3 1.7 -3.3 2.8 0 3.5 0.4 3.5 2 0 2 -1.4 2.3 -5.2 1.3z"/>
  <path d="M122 196.2 c0 -2 3.2 -3.2 8.6 -3.2 5.3 0 1.7 3.3 -4.9 4.5 -3.3 0.6 -3.7 0.5 -3.7 -1.3z"/>
  <path d="M243 195.5 c0 -2 -0.5 -2.5 -2.5 -2.5 -1.4 0 -2.5 -0.4 -2.5 -1 0 -0.5 -1.1 -1 -2.5 -1 -1.8 0 -2.5 -0.5 -2.5 -2 0 -1.5 -0.7 -2 -2.5 -2 -2.2 0 -2.5 -0.4 -2.5 -3.5 0 -4.2 1.1 -4.5 3.1 -0.8 1.3 2.4 9.7 7.3 12.7 7.3 0.6 0 1.2 0.5 1.2 1 0 0.6 0.7 1 1.5 1 0.8 0 1.5 -0.4 1.5 -0.9 0 -0.5 1.6 -1.1 3.5 -1.3 1.9 -0.2 3.5 -0.1 3.5 0.3 0 1.2 -6.1 5.6 -9.3 6.8 -2.5 1 -2.7 0.9 -2.7 -1.4z"/>
  <path d="M109.8 195.9 c-2.9 -1.6 -2.1 -2.9 1.7 -2.9 2.8 0 3.5 0.4 3.5 2 0 2.2 -2.4 2.6 -5.2 0.9z"/>
  <path d="M217.3 194 c-3.3 -1.7 -6.8 -3.9 -7.8 -5 -1.8 -2 -1.7 -2 1.8 -2 2.1 0 3.7 0.5 3.7 1 0 0.6 0.7 1 1.5 1 0.8 0 1.5 0.7 1.5 1.5 0 1 1 1.5 3 1.5 2.5 0 3 0.4 3 2.5 0 1.4 -0.2 2.5 -0.3 2.5 -0.2 0 -3.1 -1.4 -6.4 -3z"/>
  <path d="M136 192.5 c0 -0.8 0.9 -1.5 2 -1.5 1.1 0 2 0.2 2 0.5 0 0.2 -0.9 0.9 -2 1.5 -1.6 0.9 -2 0.8 -2 -0.5z"/>
  <path d="M120.3 189.5 c-1.4 -1.6 -1.8 -7.5 -0.5 -7.5 0.5 0 1.4 1.1 2.1 2.4 0.7 1.3 2.4 3 3.7 3.7 1.3 0.7 2.4 1.6 2.4 2.1 0 1.4 -6.4 0.8 -7.7 -0.7z"/>
  <path d="M205 183.3 c-0.8 -1.6 -1.6 -3.1 -1.8 -3.5 -0.2 -0.5 0.8 -0.8 2.2 -0.8 2.3 0 2.6 0.4 2.6 3.5 0 4.2 -1.2 4.5 -3 0.8z"/>
  <path d="M95 180.1 c-1.8 -3.4 -1.1 -4.8 3.4 -7.5 5.5 -3.2 5.6 -3.2 5.6 -0.1 0 2 -0.5 2.5 -2.5 2.5 -2 0 -2.5 0.6 -3.1 3.5 -0.7 3.9 -1.8 4.4 -3.4 1.6z"/>
  <path d="M203 176.4 c0 -3 4 -7.2 9.2 -9.8 6.3 -3.1 8.8 -3.3 8.8 -0.6 0 1.4 -0.9 2.1 -3.5 2.6 -1.9 0.3 -3.5 1 -3.5 1.5 0 0.5 -0.4 0.9 -1 0.9 -0.5 0 -2.1 1.1 -3.5 2.5 -1.4 1.4 -2.5 3 -2.5 3.5 0 0.6 -0.9 1 -2 1 -1.2 0 -2 -0.7 -2 -1.6z"/>
  <path d="M285.1 174.3 c3.5 -3.8 5.1 -7 6.4 -12.8 1.6 -7.7 2.6 -10.2 4 -10.2 2.1 0 1.9 3.8 -0.5 13.8 -2.3 9.7 -4.7 12.9 -9.9 12.9 l-3.5 0 3.5 -3.7z"/>
  <path d="M61.3 174.8 c-1.1 -1.3 -2.8 -5.4 -3.7 -9.3 -1 -3.8 -2.3 -8.5 -2.9 -10.3 -1 -2.9 -0.9 -3.5 0.6 -4.3 0.9 -0.6 1.7 -1.8 1.8 -2.7 0 -0.9 1.3 3.4 2.9 9.7 2.5 10 3.4 11.9 6.7 15.3 l3.7 3.8 -3.5 0 c-2.4 0 -4.2 -0.7 -5.6 -2.2z"/>
  <path d="M225 170.5 c0 -2.8 0.4 -3.5 2 -3.5 2.1 0 2.4 1 1.4 4.8 -1 3.6 -3.4 2.7 -3.4 -1.3z"/>
  <path d="M106 169.2 c0 -1.3 7.3 -4.8 11.9 -5.7 3.2 -0.7 3.4 -0.6 2.8 1.6 -0.4 1.3 -0.7 2.7 -0.7 3.1 0 0.4 -1.2 0.7 -2.7 0.7 -1.6 0 -4.7 0.3 -7 0.7 -2.7 0.4 -4.3 0.2 -4.3 -0.4z"/>
  <path d="M223 164.5 c0 -0.8 1.4 -1.7 3.5 -2.1 4.1 -0.7 4.8 -0.4 3.9 2 -0.8 2.1 -7.4 2.3 -7.4 0.1z"/>
  <path d="M220.2 109.8 c0.3 -0.7 3.2 -2.3 6.6 -3.5 l6.2 -2.2 0 2.4 c0 2.1 -0.5 2.5 -3 2.5 -1.6 0 -3 0.5 -3 1 0 0.6 -1.6 1 -3.6 1 -2.4 0 -3.4 -0.4 -3.2 -1.2z"/>
  <path d="M292.2 87.3 c-4.2 -15.7 -25.8 -43.6 -45.8 -59.2 -6.1 -4.7 -12.4 -9.6 -14 -10.9 -2.5 -1.9 -2.1 -1.8 2.4 0.5 2.9 1.6 10.6 6.9 17.2 11.8 9.8 7.4 13.4 10.9 20.6 20 9.2 11.8 19.8 31.2 21 38.4 0.9 5.5 0.1 5.2 -1.4 -0.6z"/>
  <path d="M67.8 67.7 c2.2 -4.1 8 -12.6 13 -18.9 7.5 -9.4 11.2 -13.1 20.4 -20 10.8 -8.2 15.8 -11.5 15.8 -10.4 0 0.3 -5.3 4.5 -11.7 9.4 -11.7 8.8 -14 11 -23.8 22.7 -8.3 9.8 -11.1 13.7 -13.9 19.3 -1.4 2.8 -2.9 5.2 -3.2 5.2 -0.3 0 1.2 -3.3 3.4 -7.3z"/>
  <path d="M189.9 59.6 c-14 -5.7 -19.1 -13.8 -14 -22.2 4.2 -6.9 21.9 -9.9 30.3 -5.2 4.8 2.7 12.3 12.4 14 18 1.2 3.9 1.1 4.1 -1.9 6.9 -6.2 5.4 -18.7 6.6 -28.4 2.5z m13.5 -8.2 c2.5 -0.9 1.9 -4.8 -1.1 -7.6 -3.9 -3.7 -7.1 -4.3 -11 -1.8 -3.8 2.3 -4 3.1 -1.5 5.3 4.3 3.9 9.8 5.5 13.6 4.1z"/>
  <path d="M221.5 12.4 c-2.2 -0.8 -8 -2.6 -13 -3.9 -4.9 -1.3 -8.3 -2.4 -7.5 -2.4 3.3 -0.1 19.1 3.9 22.7 5.8 4.5 2.4 3.5 2.6 -2.2 0.5z"/>
  <path d="M130.3 11 c2.1 -1.2 7.2 -2.8 11.4 -3.6 11.7 -2.2 11.8 -1.5 0.3 1.5 -5.8 1.5 -11.6 3.1 -13 3.5 -1.6 0.4 -1.1 -0.1 1.3 -1.4z"/>
  <path d="M166.8 5 c4.6 -0.4 12.9 -0.4 18.5 0 9 0.6 8 0.7 -8.3 0.7 -14.6 0 -16.8 -0.1 -10.2 -0.7z"/>
 </g>
 <g fill="#9d6857">
  <path d="M101.3 219 c-11.3 -3.9 -13.5 -5.5 -20.6 -14.3 l-3.8 -4.7 -3.7 2.3 c-10.3 6.4 -27.1 9.6 -40.7 7.8 -4.8 -0.7 -9.4 -1.6 -10.3 -2.1 -1 -0.5 -3.4 -1.6 -5.4 -2.4 -7.2 -2.8 -17.8 -23.6 -12 -23.6 1 0 2.3 1 2.9 2.3 0.6 1.2 3.1 4.5 5.7 7.4 10 11.1 24.9 14.7 43.1 10.4 12.8 -3.1 12.5 -2.8 10.9 -13.4 -0.7 -4.9 -1.8 -9.4 -2.4 -10.2 -0.6 -0.8 -1 -2.6 -0.8 -4 l0.3 -2.6 3.5 3 c1.9 1.7 4.1 3 4.8 3.1 0.7 0 3.5 -2.2 6.3 -4.9 l4.9 -4.8 0 -8.4 c0 -9.7 0.7 -12.9 2.6 -12.9 1.1 0 1.4 2.3 1.5 10.8 0.1 5.9 0.4 9.5 0.6 8 0.3 -1.7 1.2 -3 2.6 -3.4 1.1 -0.4 2.7 -1.3 3.5 -2.1 0.8 -0.8 2.7 -1.7 4.3 -2 1.6 -0.3 2.9 -0.9 2.9 -1.3 0 -1.2 7.7 -4 11 -4 4.9 0 3.4 2.3 -3 4.8 -8 3.1 -19.6 9.9 -21.5 12.5 -4 5.7 0.5 18.7 9 26.6 3.1 2.8 3.9 4.1 2.9 4.5 -3.5 1.3 -0.5 8.7 6.4 15.9 2.6 2.6 4.2 4.7 3.7 4.7 -0.6 -0.1 -4.7 -1.4 -9.2 -3z"/>
  <path d="M251.2 213.8 c7.7 -7.7 9.5 -11.2 6.3 -12.4 -1.2 -0.5 -0.7 -1.5 2 -4.6 1.8 -2.2 4.3 -6 5.4 -8.4 2.5 -5.3 4.1 -5.6 4.1 -0.9 0 1.9 -0.4 3.5 -1 3.5 -0.5 0 -1 0.9 -1 2 0 1.1 -0.4 2 -1 2 -0.5 0 -1 0.8 -1 1.8 0.1 1.2 1.4 0.3 4.3 -3 3.7 -4.1 4.9 -4.8 8 -4.8 3.4 0 3.7 0.2 3.7 3 0 2.7 0.6 3.3 5.3 5.4 10.5 4.7 15.9 6 25.2 5.9 7.4 0 10.2 -0.5 15.6 -2.7 3.6 -1.5 7.9 -4 9.4 -5.7 1.9 -1.9 3.9 -2.9 5.7 -2.9 l2.8 0 -3.6 5.5 c-4.5 6.8 -11 10.1 -23.3 12 -6.8 1.1 -9.9 1.1 -17 0 -11 -1.7 -23.1 -6 -25.3 -9 -0.5 -0.7 -1.1 -0.6 -1.5 0.1 -0.5 0.5 -3.3 4.1 -6.4 8 -5.1 6.2 -6.3 7.1 -12.5 9.4 -12.7 4.6 -12.9 4.5 -4.2 -4.2z m12.8 -15.3 c0 -0.3 -0.9 -0.5 -2 -0.5 -1.1 0 -2 0.7 -2 1.5 0 1.3 0.4 1.4 2 0.5 1.1 -0.6 2 -1.3 2 -1.5z"/>
  <path d="M167.8 210.3 c-3.3 -0.9 -2 -3.3 1.7 -3.3 l3.6 0 -2.1 -2.8 c-1.6 -2.1 -2 -4 -1.8 -7.3 0.3 -4.4 0.3 -4.4 4.3 -4.7 2.5 -0.2 5.3 0.3 7.3 1.4 3.3 1.8 3.4 1.9 3 7.6 -0.3 5 -0.1 5.8 1.5 5.8 2.5 0 2.1 2.7 -0.5 3.4 -2.6 0.6 -14.4 0.6 -17 -0.1z"/>
  <path d="M143.8 209.3 c-3.6 -0.9 -2 -3.3 2.2 -3.3 3.3 0 4 0.3 4 2 0 2 -2 2.4 -6.2 1.3z"/>
  <path d="M200 208 c0 -1.7 0.7 -2 4 -2 4.5 0 5.7 2.3 1.8 3.4 -4.2 1.1 -5.8 0.7 -5.8 -1.4z"/>
  <path d="M129.5 208.2 l-4 -0.4 5 -1.4 c6.7 -1.8 7.5 -1.7 7.5 0.6 0 2.1 -0.2 2.1 -8.5 1.2z"/>
  <path d="M214 208 c0 -0.5 -0.7 -1 -1.5 -1 -1 0 -1.5 -1 -1.5 -3 0 -2.8 -0.3 -3 -3.5 -3 -3.3 0 -3.5 -0.2 -3.5 -3.1 0 -3.5 0.3 -3.4 6.5 2.2 1.7 1.5 4.9 3.9 7.3 5.2 l4.3 2.4 -3.2 0.7 c-4.2 0.8 -4.9 0.8 -4.9 -0.4z"/>
  <path d="M143.5 200 c0.3 -0.5 1.9 -1.9 3.5 -3 l3 -2.1 0 3 c0 2.9 -0.3 3.1 -3.6 3.1 -2 0 -3.3 -0.4 -2.9 -1z"/>
  <path d="M158.5 184.3 c0.4 -1 1 -2.6 1.2 -3.5 1 -3.3 3.3 -2 3.3 1.7 0 3.1 -0.3 3.5 -2.6 3.5 -2.1 0 -2.5 -0.3 -1.9 -1.7z"/>
  <path d="M274 177.5 c0 -3.9 0.9 -4.4 2.8 -1.5 0.7 1.1 1.9 2 2.7 2 0.8 0 1.5 0.7 1.5 1.5 0 1 -1.1 1.5 -3.5 1.5 -3.3 0 -3.5 -0.2 -3.5 -3.5z"/>
  <path d="M161 175.7 c0 -0.8 -1.1 -3.5 -2.4 -6 l-2.3 -4.7 2.7 0 c2.2 0 3 0.6 3.9 3.1 1.6 4.6 1.4 8.9 -0.4 8.9 -0.8 0 -1.5 -0.6 -1.5 -1.3z"/>
  <path d="M194 168.5 c0 -3.2 0.2 -3.5 3 -3.5 l3 0 -2.2 3.5 c-2.9 4.4 -3.8 4.4 -3.8 0z"/>
  <path d="M258.5 164.8 c-8.2 -5.9 -13 -8.1 -20.8 -9.8 -4 -0.8 -5.7 -1.6 -5.7 -2.7 0 -1.3 0.9 -1.5 5.8 -0.9 3.1 0.4 5.9 1.1 6 1.6 0.2 0.6 1.7 1 3.3 1 1.9 0 2.9 0.5 2.9 1.5 0 1 1 1.5 3 1.5 1.7 0 3 0.5 3 1 0 0.6 0.7 1 1.5 1 0.8 0 1.5 0.5 1.5 1 0 0.6 0.7 1 1.5 1 0.8 0 1.5 0.7 1.5 1.5 0 0.8 0.9 1.5 2 1.5 1.6 0 2 0.7 2 3 0 1.7 -0.1 3 -0.2 2.9 -0.2 0 -3.4 -2.3 -7.3 -5.1z"/>
  <path d="M209 156.5 c0 -2.2 0.4 -2.5 3.6 -2.5 4.4 0 4.2 1.8 -0.4 3.7 -3.1 1.3 -3.2 1.2 -3.2 -1.2z"/>
  <path d="M133.3 154.8 c-5 -1.1 -6 -3.8 -1.4 -3.8 5.7 0 9.1 1.2 9.1 3.1 0 2.1 -1.2 2.2 -7.7 0.7z"/>
  <path d="M118 153 c0 -1.6 0.7 -2 3.5 -2 4 0 4.9 2.4 1.3 3.4 -3.8 1 -4.8 0.7 -4.8 -1.4z"/>
  <path d="M220 153 c0 -1.7 0.7 -2 4 -2 4.5 0 5.7 2.3 1.8 3.4 -4.2 1.1 -5.8 0.7 -5.8 -1.4z"/>
  <path d="M158.3 141.9 c-1.8 -0.5 -3.3 -1.4 -3.3 -1.9 0 -0.6 -0.7 -1 -1.5 -1 -0.8 0 -1.5 -0.9 -1.5 -2 0 -1.3 -0.7 -2 -2 -2 -1.1 0 -2 -0.7 -2 -1.5 0 -0.8 -0.4 -1.5 -1 -1.5 -0.5 0 -1 -1.6 -1 -3.5 0 -4.7 1.3 -4.4 4.4 1 3.2 5.4 9.4 9.3 15.9 9.9 8.2 0.7 9.8 -4.1 4.2 -12.6 -2 -3 -2.2 -3.8 -1 -3.8 0.8 0 1.5 -0.3 1.5 -0.8 0 -0.4 3.4 -0.8 7.5 -0.8 6.4 0 7.5 0.3 7.5 1.8 0 1.2 -1.2 1.9 -4.5 2.4 -2.5 0.3 -5.2 0.4 -6 0 -1 -0.4 -1.5 0.1 -1.5 1.4 0 1.1 0.7 2 1.5 2 1.2 0 1.5 1.3 1.5 6 0 5.7 -0.1 6 -2.5 6 -1.4 0 -2.5 0.5 -2.5 1 0 1.2 -9.3 1.2 -13.7 -0.1z"/>
  <path d="M187 141.5 c0 -0.9 -0.9 -1.5 -2.5 -1.5 -2.3 0 -2.5 -0.3 -2.5 -4.7 0 -6.7 0.9 -9.3 3.1 -9.3 1.4 0 1.9 -0.7 1.9 -2.9 0 -2.4 0.5 -2.9 3.1 -3.5 5.3 -1 5.4 -0.7 1.7 3.2 -4.2 4.2 -7.2 10.5 -6.3 13.2 1.4 4.5 10.2 4.5 16.5 0 l3 -2.1 0 3 c0 2.9 -0.3 3.1 -3.5 3.1 -2.4 0 -3.5 0.5 -3.5 1.5 0 1.2 -1.3 1.5 -5.5 1.5 -4.2 0 -5.5 -0.3 -5.5 -1.5z"/>
  <path d="M266 135.5 c0 -4 2.4 -4.9 3.4 -1.2 1 3.7 0.7 4.7 -1.4 4.7 -1.6 0 -2 -0.7 -2 -3.5z"/>
  <path d="M85 136.3 c0 -1.2 1.9 -14.3 2.5 -18 0.4 -2 1.2 -3.3 2 -3.3 1.8 0 1.8 0.6 0.3 12.6 -1 8 -1.4 9.4 -3 9.4 -1 0 -1.8 -0.3 -1.8 -0.7z"/>
  <path d="M208.3 129.1 c1.9 -3.4 2 -4.5 1.1 -8 -1.1 -3.9 -1 -4.1 1.2 -4.1 2.3 0 2.4 0.3 2.4 6.4 0 8.3 -0.6 9.6 -4 9.6 l-2.8 0 2.1 -3.9z"/>
  <path d="M265 127.5 c0 -4 2.4 -4.9 3.4 -1.2 1 3.7 0.7 4.7 -1.4 4.7 -1.6 0 -2 -0.7 -2 -3.5z"/>
  <path d="M264 119.5 c0 -4 2.4 -4.9 3.4 -1.2 1 3.7 0.7 4.7 -1.4 4.7 -1.6 0 -2 -0.7 -2 -3.5z"/>
  <path d="M145.5 117.4 c-0.3 -2.5 -0.5 -4.7 -0.3 -4.9 0.2 -0.2 2 0.4 4 1.3 l3.7 1.7 -2.9 3.3 c-1.6 1.7 -3.2 3.2 -3.4 3.2 -0.2 0 -0.7 -2.1 -1.1 -4.6z"/>
  <path d="M164.6 120.4 c-1.7 -1.2 -1.7 -1.4 -0.4 -1.4 0.9 0 2 0.5 2.3 1.1 1.1 1.7 0.2 1.8 -1.9 0.3z"/>
  <path d="M205.1 116.2 c-1.4 -0.5 0.2 -1.3 10.2 -5.3 l4.7 -1.9 0 2.5 c0 2 -0.5 2.5 -2.4 2.5 -1.3 0 -2.6 0.4 -2.8 0.9 -0.4 1 -7.7 2 -9.7 1.3z"/>
  <path d="M90 109.8 c0 -3 1.3 -5.8 2.6 -5.8 0.9 0 1.4 1.2 1.4 3.5 0 2.8 -0.4 3.5 -2 3.5 -1.1 0 -2 -0.6 -2 -1.2z"/>
  <path d="M260.6 108.8 c-1 -3.8 -0.7 -4.8 1.3 -4.8 1.7 0 3.1 2.5 3.1 5.8 0 2.2 -3.7 1.3 -4.4 -1z"/>
  <path d="M223.2 108.8 c0.3 -0.7 3.2 -2.2 6.6 -3.5 l6.2 -2.2 0 2.5 c0 2 -0.5 2.4 -3 2.4 -1.6 0 -3 0.5 -3 1 0 0.6 -1.6 1 -3.6 1 -2.4 0 -3.4 -0.4 -3.2 -1.2z"/>
  <path d="M121.8 107.7 c-1.9 -0.7 -2.8 -1.8 -2.8 -3.4 l0 -2.2 6 2.1 c6.6 2.4 8 4.9 2.8 4.7 -1.8 -0.1 -4.5 -0.6 -6 -1.2z"/>
  <path d="M98.2 102.8 c0.6 -1.7 8.7 -4.6 11 -4 3 0.8 2 2.8 -2.1 4 -5.1 1.6 -9.4 1.5 -8.9 0z"/>
  <path d="M246.2 103.3 c-3.8 -0.5 -3.8 -2.3 -0.1 -3.7 1.7 -0.5 3.6 -0.3 6.2 0.7 6.9 2.9 4.2 4.2 -6.1 3z"/>
 </g>
 <g fill="#b37864">
  <path d="M176 210.3 c-0.8 -0.2 -3 -2.3 -4.8 -4.5 -2.9 -3.6 -3.3 -4.7 -3 -9.2 l0.3 -5.1 4.7 -0.3 c2.9 -0.2 6 0.4 8.5 1.5 3.3 1.6 3.8 2.3 4.1 5.8 0.2 2.5 -0.3 5.3 -1.4 7.5 -1 1.9 -1.8 3.6 -1.9 3.7 -0.1 0.5 -5.2 1 -6.5 0.6z m4.8 -9.3 c0.2 -1.9 -0.5 -3 -2.8 -4.3 -5.5 -3.3 -7.9 -0.4 -3.9 4.7 2.7 3.4 6.3 3.2 6.7 -0.4z"/>
  <path d="M145.8 209.3 c-3.3 -0.8 -2 -3.3 1.7 -3.3 2.8 0 3.5 0.4 3.5 2 0 2 -1.4 2.3 -5.2 1.3z"/>
  <path d="M133.8 208.3 c-1.8 -0.4 -2.5 -2.3 -1 -2.3 0.5 0 3.4 -1.5 6.5 -3.4 l5.7 -3.5 0 3 c0 2.4 -0.4 2.9 -2.4 2.9 -1.5 0 -2.6 0.7 -2.9 2 -0.5 1.9 -2.2 2.3 -5.9 1.3z"/>
  <path d="M213 207.1 c0 -3 1.7 -3.4 5.1 -1.4 3 1.8 3 1.8 0.7 2.5 -4.3 1.2 -5.8 0.9 -5.8 -1.1z"/>
  <path d="M32.4 206.5 c-11.7 -2.1 -19.9 -7.6 -26.4 -17.2 -3.5 -5.4 -4.2 -11.3 -1.2 -11.3 1.2 0 2.5 1.4 3.6 3.8 2.2 4.8 9.7 12.7 15.5 16.2 7 4.3 17.5 5.7 27.3 3.7 4.3 -0.8 9 -2.3 10.5 -3.1 1.5 -0.9 3.5 -1.8 4.4 -2.1 1.4 -0.6 1.4 -1.4 0.3 -7.8 -0.8 -4 -1.7 -9.4 -2 -12.2 l-0.6 -5 2.6 2.6 c2.2 2.1 2.9 4.1 4 11 0.7 4.6 1.8 9.4 2.4 10.6 1.8 3.3 1.6 3.8 -3 6 -9.2 4.5 -26.6 6.7 -37.4 4.8z"/>
  <path d="M258.7 204.6 c0.3 -1.3 0 -2.7 -0.6 -3 -2 -1.3 -1.2 -2.3 4.2 -5.6 5.8 -3.5 13.6 -13.9 13.8 -18.2 0 -1.3 0.3 -1.7 0.6 -1 0.7 1.7 4.8 1.5 6.3 -0.3 1.9 -2.3 3 -1.8 3 1.4 0 2.1 -0.6 3.2 -2.1 3.6 -1.9 0.6 -2.1 1.2 -1.5 5.2 0.3 2.5 0.6 5.2 0.6 5.9 0 0.8 0.9 1.4 1.9 1.4 1.1 0 2.3 0.5 2.7 1.1 1.1 1.9 11.1 5.8 17.1 6.8 7 1.1 17.1 -0.3 22.8 -3.1 2.2 -1.1 6.1 -3.8 8.7 -5.9 4.4 -3.7 9.8 -5.3 9.8 -2.9 0 0.6 -2.1 3.3 -4.6 6 -3.2 3.4 -6.5 5.6 -11.2 7.6 -6 2.5 -8 2.8 -18.7 2.8 -12.6 0.1 -16.7 -0.8 -28.2 -6 -4.7 -2.1 -5.3 -2.7 -5.3 -5.4 0 -1.6 -0.2 -3 -0.5 -3 -0.3 0 -2.9 2.4 -5.8 5.3 -2.9 2.8 -7 6.2 -9.3 7.4 l-4.1 2.3 0.4 -2.4z"/>
  <path d="M92.9 194.8 c-2.4 -2.6 -6.9 -11.5 -6.9 -13.8 0 -0.8 1.1 0.9 2.5 3.8 1.3 2.9 3.6 6.8 5.1 8.7 3 3.9 2.6 4.7 -0.7 1.3z"/>
  <path d="M196 189.5 c0 -4.4 0.9 -4.4 3.8 0 l2.2 3.5 -3 0 c-2.8 0 -3 -0.3 -3 -3.5z"/>
  <path d="M156.8 186.8 c1.6 -2.4 3.3 -5.8 3.6 -7.5 1 -4.5 3.6 -4.4 3.6 0.2 0 1.9 -0.4 3.5 -1 3.5 -0.5 0 -1 1.1 -1 2.5 0 1.4 -0.4 2.5 -1 2.5 -0.5 0 -1 0.7 -1 1.5 0 1 -1 1.5 -3 1.5 l-3.1 0 2.9 -4.2z"/>
  <path d="M267.1 183.3 c0.6 -1.7 0.8 -5.7 0.4 -10 -0.6 -6.3 -0.4 -7.3 0.9 -7.3 0.9 0 1.6 0.5 1.6 1.2 0 0.7 1.2 2.5 2.7 4 2 2.1 2.3 2.8 1.1 2.8 -1.1 0 -1.7 1.5 -2.2 6 -0.6 5.5 -0.9 6 -3.1 6 -2.3 0 -2.4 -0.2 -1.4 -2.7z"/>
  <path d="M192 172.5 c0 -3 0.3 -3.5 2.4 -3.5 2.3 0 2.4 0.2 1.3 3.5 -0.6 1.9 -1.6 3.5 -2.4 3.5 -0.8 0 -1.3 -1.3 -1.3 -3.5z"/>
  <path d="M85.3 172 c-1.1 -2.7 0 -41.6 1.3 -45.8 0.3 -1.2 1.3 -2.2 2.2 -2.2 1.2 0 1.4 1 0.8 5.3 l-0.6 5.4 6.5 6.2 c6.3 6.1 6.5 6.5 6.5 11.2 0 4.2 0.3 4.9 2 4.9 3.7 0 2.1 1.8 -5.2 5.8 -7.2 3.9 -11 7.2 -12.1 10.2 -0.3 1.1 -0.7 0.8 -1.4 -1z"/>
  <path d="M58 166.5 c0 -4 2.4 -4.9 3.4 -1.2 1 3.7 0.7 4.7 -1.4 4.7 -1.6 0 -2 -0.7 -2 -3.5z"/>
  <path d="M156 165.5 c-4.2 -4.4 -10.6 -7.8 -18.9 -10.1 -6.8 -1.9 -8.3 -4.4 -2.6 -4.4 1.9 0 3.5 0.5 3.5 1 0 0.6 1.6 1 3.5 1 2.4 0 3.5 0.5 3.5 1.5 0 1 1 1.5 2.9 1.5 3.9 0 6.1 0.9 6.1 2.6 0 0.8 0.8 1.4 1.9 1.4 2.7 0 4.3 2.4 3.9 6 l-0.3 3.1 -3.5 -3.6z"/>
  <path d="M261 166 l-3.5 -2.9 3.8 -0.1 c3.5 0 3.7 0.2 3.7 3 0 1.7 -0.1 3 -0.3 3 -0.1 0 -1.8 -1.3 -3.7 -3z"/>
  <path d="M291 166.8 c0 -3 1.3 -5.8 2.6 -5.8 0.9 0 1.4 1.2 1.4 3.5 0 2.8 -0.4 3.5 -2 3.5 -1.1 0 -2 -0.6 -2 -1.2z"/>
  <path d="M201 161 c0 -2.8 0.3 -3 3.5 -3 4.4 0 4.4 0.9 0 3.8 l-3.5 2.2 0 -3z"/>
  <path d="M215 154 c0 -1.6 0.7 -2 3.5 -2 4 0 4.9 2.4 1.3 3.4 -3.8 1 -4.8 0.7 -4.8 -1.4z"/>
  <path d="M117 153 c0 -1.6 0.7 -2 3.5 -2 4 0 4.9 2.4 1.3 3.4 -3.8 1 -4.8 0.7 -4.8 -1.4z"/>
  <path d="M234.8 154.3 c-3.3 -0.8 -2 -3.3 1.7 -3.3 2.8 0 3.5 0.4 3.5 2 0 2 -1.4 2.3 -5.2 1.3z"/>
  <path d="M160 141 c0 -2.1 1 -2.4 4.8 -1.4 3.6 1 2.7 3.4 -1.3 3.4 -2.8 0 -3.5 -0.4 -3.5 -2z"/>
  <path d="M168 141.5 c0 -0.8 0.7 -1.5 1.5 -1.5 0.8 0 2.4 -0.9 3.5 -2 l2 -2 0 3.5 c0 3.3 -0.2 3.5 -3.5 3.5 -2.4 0 -3.5 -0.5 -3.5 -1.5z"/>
  <path d="M266 136.5 c0 -4 2.4 -4.9 3.4 -1.2 1 3.7 0.7 4.7 -1.4 4.7 -1.6 0 -2 -0.7 -2 -3.5z"/>
  <path d="M172.5 130 c-2 -3.8 -1.9 -4 1 -4 2.2 0 2.5 0.4 2.5 3.5 0 4.3 -1.4 4.5 -3.5 0.5z"/>
  <path d="M265 128.5 c0 -4 2.4 -4.9 3.4 -1.2 1 3.7 0.7 4.7 -1.4 4.7 -1.6 0 -2 -0.7 -2 -3.5z"/>
  <path d="M184 127.5 c0 -1.9 0.5 -3.5 1 -3.5 0.6 0 1 -0.7 1 -1.5 0 -0.9 0.9 -1.5 2.4 -1.5 1.4 0 2.8 -0.4 3.1 -1 0.3 -0.5 1.4 -1 2.3 -1 1.3 0 1.2 0.3 -0.5 1.5 -1.1 0.8 -3.4 3.5 -4.9 6 -1.6 2.5 -3.2 4.5 -3.6 4.5 -0.5 0 -0.8 -1.6 -0.8 -3.5z"/>
  <path d="M145 126.5 c0 -2.2 0.5 -3.5 1.3 -3.5 0.8 0 1.8 1.6 2.4 3.5 1.1 3.3 1 3.5 -1.3 3.5 -2.1 0 -2.4 -0.5 -2.4 -3.5z"/>
  <path d="M165.9 121.4 c-2.2 -2.4 -2.2 -2.6 -0.4 -2.1 1.1 0.3 3.2 0.9 4.8 1.3 1.5 0.3 2.7 1.2 2.7 2 0 2.4 -4.5 1.6 -7.1 -1.2z"/>
  <path d="M87 121.8 c0 -3 1.3 -5.8 2.6 -5.8 0.9 0 1.4 1.2 1.4 3.5 0 2.8 -0.4 3.5 -2 3.5 -1.1 0 -2 -0.6 -2 -1.2z"/>
  <path d="M263 115.5 c0 -4 2.4 -4.9 3.4 -1.2 1 3.7 0.7 4.7 -1.4 4.7 -1.6 0 -2 -0.7 -2 -3.5z"/>
  <path d="M142 115 c0 -0.5 -1 -1 -2.2 -1 -3.3 0 -5 -1.4 -4.6 -3.8 0.3 -2 0.4 -2 6.7 0.7 7.6 3.2 8.9 5.1 3.7 5.1 -2 0 -3.6 -0.4 -3.6 -1z"/>
  <path d="M232.2 105.8 c0.3 -0.7 2.6 -2.1 5.1 -3 l4.7 -1.8 0 2.4 c0 2.5 -2.1 3.6 -7.3 3.6 -1.9 0 -2.7 -0.4 -2.5 -1.2z"/>
  <path d="M113.3 104.8 c-2.5 -0.8 -3.3 -1.7 -3.3 -3.4 l0 -2.3 6.2 2.2 c7 2.5 8.8 4.8 3.6 4.6 -1.8 -0.1 -4.8 -0.6 -6.5 -1.1z"/>
  <path d="M252.8 105.3 c-1.1 -0.3 -1.8 -1.4 -1.8 -2.9 l0 -2.4 4.7 1.8 c5.7 2.1 6.9 4.2 2.1 4.1 -1.8 -0.1 -4.1 -0.3 -5 -0.6z"/>
 </g>
 <g fill="#c3836d">
  <path d="M198 208 c0 -1.7 0.7 -2 4 -2 4.5 0 5.7 2.3 1.8 3.4 -4.2 1.1 -5.8 0.7 -5.8 -1.4z"/>
  <path d="M132 208.1 l-4.5 -0.6 4.4 -1.3 c6.1 -1.9 10.9 -5.1 19.1 -12.8 l7 -6.6 0 3.4 c0 4.3 -1.5 5.8 -5.7 5.8 -3 0 -3.3 0.3 -3.3 3 0 2.8 -0.3 3 -3.5 3 -2.9 0 -3.5 0.4 -3.5 2.1 0 2.4 -2.3 5 -4.2 4.7 -0.7 0 -3.3 -0.4 -5.8 -0.7z"/>
  <path d="M170.7 207.2 c-2.2 -2.4 -3.7 -6.7 -3.7 -10.7 0 -5.8 0.7 -6.5 6.5 -6.5 3 0 5.7 0.5 6 1 0.3 0.6 1.6 1 2.9 1 1.2 0 2.7 0.5 3.4 1.2 2 2 1.5 9.6 -0.9 12.9 -1.8 2.6 -2.6 2.9 -7.3 2.9 -3.8 0 -5.7 -0.5 -6.9 -1.8z m11 -4.8 c2.1 -3.3 1.1 -5.1 -4 -7.1 -6.7 -2.7 -9 0.8 -4.1 6.6 3.2 3.8 5.8 3.9 8.1 0.5z"/>
  <path d="M30 204.6 c-9.5 -2.2 -19.6 -10.4 -24.7 -20 -4.5 -8.4 -1 -12.6 3.7 -4.4 3.6 6.2 12.7 14.9 18.5 17.7 10.1 5 32.3 2.8 36.9 -3.6 1.9 -2.6 1.9 -2.9 0.3 -10.9 -0.9 -4.5 -1.7 -9.2 -1.7 -10.5 l0.1 -2.4 2.3 2.7 c1.7 1.9 2.7 4.9 3.5 10 0.7 4 1.8 8.8 2.6 10.6 2 4.4 1.9 5.2 -0.7 5.2 -1.2 0 -2.9 0.6 -3.7 1.4 -4.8 4.2 -26.5 6.7 -37.1 4.2z"/>
  <path d="M301.6 204.9 c-5.8 -0.9 -15.1 -4.6 -16.7 -6.5 -0.6 -0.8 -1.9 -1.4 -2.9 -1.4 -1.4 0 -1.9 -1.3 -2.6 -6.7 l-0.9 -6.7 -3.8 5.9 c-2.5 3.9 -5.8 7.3 -9.3 9.8 -4.9 3.3 -5.7 3.5 -7 2.2 -1.4 -1.3 -1.1 -2.1 2.7 -6.5 2.4 -2.8 4.4 -6 4.6 -7.1 0.7 -4.3 4.3 -8.2 4.3 -4.6 0 0.8 0.4 0.7 1 -0.3 1.4 -2.2 1.2 -3 -0.9 -3 -1.9 0 -2 0 -1.3 -9.8 0.2 -2.1 0.5 -2 4 1.6 2 2.2 4.3 4.7 5 5.6 1.6 2.1 2.7 2 4.9 -0.2 1 -1 2.6 -2.4 3.6 -3.1 1.5 -1.2 1.7 -1 1.7 1.8 0 2 -0.5 3.1 -1.4 3.1 -1.6 0 -2.6 3 -2.6 7.8 0 10 26.3 17.7 40.1 11.8 4.5 -2 15.8 -10 17.2 -12.3 0.4 -0.7 1.8 -1.3 3.1 -1.3 4 0 2 5.1 -3.9 10 -7.1 5.9 -12.9 8.6 -21.2 9.9 -8 1.2 -10.6 1.2 -17.7 0z"/>
  <path d="M205 198.9 l0 -3 3 2.1 c4.4 3.1 4.5 4 0.6 4 -3.3 0 -3.6 -0.2 -3.6 -3.1z"/>
  <path d="M160.1 172 c-2.1 -7.1 -11.6 -14.2 -22 -16.5 -4.4 -0.9 -4.1 -3.5 0.4 -3.5 1.9 0 3.5 0.5 3.5 1 0 0.6 1.1 1 2.4 1 3.7 0 5.6 1 5.6 3.1 0 1.5 0.7 1.9 3.5 1.9 2.8 0 3.5 0.4 3.5 2 0 1.3 0.7 2 2 2 1.6 0 2 0.7 2 3 0 2 0.5 3 1.5 3 1 0 1.5 1.1 1.5 3.5 0 4.8 -2.4 4.5 -3.9 -0.5z"/>
  <path d="M99 156.1 c0 -3.7 -0.5 -6.5 -1.4 -7.3 -0.7 -0.7 -3.8 -3.6 -6.9 -6.5 l-5.5 -5.2 1.3 -9.6 c1.9 -13.4 2.5 -15.5 4.1 -15.5 0.9 0 1.4 1.1 1.4 3.3 0 1.7 0.4 3.7 0.8 4.3 1.7 2.8 18.5 16.2 24.4 19.7 9.1 5.3 10.8 7.1 10.8 11.2 0 3.2 -0.2 3.5 -3.1 3.5 -4.3 0 -13.5 2.5 -20.2 5.5 l-5.7 2.5 0 -5.9z"/>
  <path d="M211 155.4 c0 -2.1 0.5 -2.4 3.5 -2.4 2.2 0 3.5 0.5 3.5 1.3 0 0.8 -1.6 1.8 -3.5 2.4 -3.3 1.1 -3.5 1 -3.5 -1.3z"/>
  <path d="M244.3 156.8 c-4.5 -1.5 -4.3 -3.8 0.2 -3.8 3.1 0 3.5 0.3 3.5 2.5 0 1.4 -0.1 2.5 -0.2 2.4 -0.2 -0.1 -1.8 -0.6 -3.5 -1.1z"/>
  <path d="M219 153 c0 -1.6 0.7 -2 3.5 -2 4 0 4.9 2.4 1.3 3.4 -3.8 1 -4.8 0.7 -4.8 -1.4z"/>
  <path d="M294 153.2 c0 -1.1 0.8 -1.8 2 -1.9 1.4 -0.1 2 0.4 2 1.8 0 1.2 -0.7 1.9 -2 1.9 -1.3 0 -2 -0.7 -2 -1.8z"/>
  <path d="M185.3 142.3 c-0.7 -0.2 -1.3 -2 -1.3 -3.9 0 -1.9 -0.4 -3.4 -1 -3.4 -0.5 0 -1 -1.6 -1 -3.5 0 -3.1 0.3 -3.5 2.5 -3.5 2.2 0 2.4 0.2 1.5 2.6 -1.8 4.5 -1.2 6.3 2.5 8.1 2.8 1.3 4.1 1.4 7 0.6 3.3 -1.1 3.5 -1 3.5 1.3 0 2.3 -0.3 2.4 -6.2 2.3 -3.5 0 -6.9 -0.3 -7.5 -0.6z"/>
  <path d="M153 137 c0 -2.7 -0.3 -3 -3 -3 -2.8 0 -3 -0.3 -3 -3.5 0 -4.4 0.9 -4.4 3.8 0 1.2 1.9 3.8 4.5 5.7 5.7 4.4 2.9 4.4 3.8 0 3.8 -3.2 0 -3.5 -0.2 -3.5 -3z"/>
  <path d="M205 133.4 l4.5 -4.5 0.3 3.1 c0.4 4.2 -1.3 6 -5.6 6 l-3.6 0 4.4 -4.6z"/>
  <path d="M173.3 131.5 c-1.1 -3.3 -1 -3.5 1.3 -3.5 2.1 0 2.4 0.5 2.4 3.5 0 2.2 -0.5 3.5 -1.3 3.5 -0.8 0 -1.8 -1.6 -2.4 -3.5z"/>
  <path d="M184 122.6 c0 -1.4 5.6 -3.3 6.7 -2.2 0.3 0.3 0.3 1.2 0 2.1 -0.8 2 -6.7 2.1 -6.7 0.1z"/>
  <path d="M165.6 121.1 c-1.7 -1.9 -1.7 -1.9 0.3 -1.4 1.2 0.3 2.1 1.2 2.1 1.9 0 1.8 -0.4 1.8 -2.4 -0.5z"/>
  <path d="M207.1 117.3 c-1.3 -1.3 -2.2 -2.3 -1.9 -2.3 0.3 0 2.2 -0.7 4.2 -1.5 3.6 -1.5 3.6 -1.5 3.6 1 0 1.5 -0.6 2.5 -1.4 2.5 -0.8 0 -1.6 0.6 -1.8 1.3 -0.2 0.8 -1.1 0.5 -2.7 -1z"/>
  <path d="M149 116.1 c0 -1.4 0.5 -1.8 2 -1.4 1.1 0.3 2 0.7 2 0.9 0 0.2 -0.9 0.8 -2 1.4 -1.7 0.9 -2 0.8 -2 -0.9z"/>
  <path d="M262 112.5 c0 -4 2.4 -4.9 3.4 -1.2 1 3.7 0.7 4.7 -1.4 4.7 -1.6 0 -2 -0.7 -2 -3.5z"/>
  <path d="M127 108 c0 -2.2 2 -2.6 5.1 -1 3 1.6 2.3 3 -1.6 3 -2.8 0 -3.5 -0.4 -3.5 -2z"/>
  <path d="M96.2 103.8 c0.3 -0.7 1.9 -1.8 3.6 -2.5 3.1 -1.3 3.2 -1.2 3.2 1.2 0 2.2 -0.4 2.5 -3.6 2.5 -2.3 0 -3.4 -0.4 -3.2 -1.2z"/>
  <path d="M238.2 103.8 c0.3 -0.7 1.9 -1.8 3.6 -2.5 3.1 -1.3 3.2 -1.2 3.2 1.2 0 2.2 -0.4 2.5 -3.6 2.5 -2.3 0 -3.4 -0.4 -3.2 -1.2z"/>
  <path d="M107 101 c0 -2.2 2 -2.6 5.1 -1 3 1.6 2.3 3 -1.6 3 -2.8 0 -3.5 -0.4 -3.5 -2z"/>
 </g>
 <g fill="#d08c76">
  <path d="M146.8 209.3 c-1 -0.2 -1.8 -1.1 -1.8 -1.9 0 -1 1.3 -1.4 5 -1.4 4.3 0 5 0.3 5 2 0 1.6 -0.6 2 -3.2 1.9 -1.8 -0.1 -4.1 -0.3 -5 -0.6z"/>
  <path d="M168.5 206.8 c-2.6 -3 -2.7 -3.6 -2.1 -9.8 0.4 -3.6 1.1 -6.9 1.6 -7.4 1.1 -1.1 9.6 -0.3 14 1.4 1.9 0.7 4.1 1.4 4.8 1.6 1.9 0.5 1.5 9 -0.8 13.4 l-2 4 -6.4 0 c-6 0 -6.6 -0.2 -9.1 -3.2z m13.4 -3.7 c3.3 -4.6 2.2 -8.1 -2.5 -8.1 -1.3 0 -2.6 -0.4 -2.9 -1 -0.3 -0.5 -1.7 -1 -3 -1 -2.9 0 -3.9 2.7 -2.5 6.6 2.7 6.9 7.4 8.4 10.9 3.5z"/>
  <path d="M197 208 c0 -1.6 0.7 -2 3.5 -2 4 0 4.9 2.4 1.3 3.4 -3.8 1 -4.8 0.7 -4.8 -1.4z"/>
  <path d="M133.1 208.1 l-4.4 -0.6 4.7 -1.7 4.6 -1.7 0 2.4 c0 1.4 -0.1 2.4 -0.2 2.3 -0.2 0 -2.3 -0.4 -4.7 -0.7z"/>
  <path d="M212 207.1 c0 -2.3 3.2 -2.9 6 -1.1 1.9 1.1 1.1 1.8 -2.8 2.6 -2.8 0.6 -3.2 0.4 -3.2 -1.5z"/>
  <path d="M30.3 203 c-8.3 -1.7 -18.1 -9.7 -24.6 -20.3 -2.8 -4.5 -3.1 -6.5 -2.1 -10.4 0.7 -2.5 3.4 -3.2 3.4 -0.9 0 0.7 1.7 4.1 3.7 7.6 4.1 6.8 11.5 14 17.9 17 5.4 2.7 14.6 3.5 21.9 2.1 8.1 -1.6 10.7 -2.8 12.8 -5.7 1.7 -2.3 1.8 -3.1 0.7 -9 -0.7 -3.5 -1.6 -6.7 -2.1 -7 -0.5 -0.3 -0.9 -2.2 -0.9 -4.2 l0.1 -3.7 2.8 3.1 c2.3 2.5 3.2 5 4.5 12.4 1 5 2 9.8 2.3 10.6 0.3 0.8 -0.1 1.4 -1 1.4 -0.9 0 -2.3 1 -3.1 2.1 -3.2 4.7 -23.5 7.4 -36.3 4.9z"/>
  <path d="M297.2 202.1 c-8.1 -2.2 -8.6 -2.5 -13.1 -6.3 -2.9 -2.5 -3.1 -3.1 -3.1 -9.5 0.1 -6.7 0.7 -8.4 4.3 -11.2 1.7 -1.3 1.7 -1 1.1 6.5 l-0.6 7.9 3.5 2.3 c6.8 4.5 13.7 6.6 22.2 6.5 10 0 15.2 -2.1 25.2 -10.4 7.2 -5.9 10.3 -7.2 10.3 -4.3 0 4.4 -9.7 13.3 -19.1 17.6 -6.6 3 -21.3 3.4 -30.7 0.9z"/>
  <path d="M259.9 196.5 c3.9 -4.5 6.8 -10.1 8 -15.7 0.9 -3.5 0.7 -5 -0.8 -8 -1.8 -3.7 -1.8 -3.8 0.1 -3.8 2.8 0 8.5 4.7 9.2 7.6 1 4 -3.7 12.6 -10.2 18.4 -6.8 6 -11.3 7.1 -6.3 1.5z"/>
  <path d="M150.5 194.4 c3.8 -3.4 4 -3.4 4.3 -1.4 0.6 3.8 -0.5 5 -4.5 5 l-3.8 -0.1 4 -3.5z"/>
  <path d="M193 184.5 c0 -1.9 -0.4 -3.5 -1 -3.5 -0.5 0 -1 -1.6 -1 -3.5 0 -2.8 0.4 -3.5 2 -3.5 1.6 0 2 0.7 2 3.8 0.1 2 0.7 4.8 1.5 6.2 2 3.5 1.9 4 -1 4 -2.2 0 -2.5 -0.4 -2.5 -3.5z"/>
  <path d="M160 181.4 c5.1 -13.2 -11.5 -27.1 -32.9 -27.5 -3.6 -0.1 -5.6 -0.4 -4.3 -0.6 4.9 -1 1.9 -4.9 -8.6 -11 -6.4 -3.8 -22.9 -17.2 -24.5 -19.9 -0.5 -0.8 -1.2 -1.2 -1.8 -0.9 -0.5 0.3 -0.7 0 -0.5 -0.7 0.2 -0.7 1.2 -4.7 2.1 -8.9 1.7 -7.3 1.9 -7.7 5.1 -8.7 3.1 -0.9 3.4 -0.8 3.4 1 0 3.9 14.2 15 27.3 21.3 2.8 1.4 10.4 4 16.7 5.7 6.3 1.7 12.2 3.7 13 4.4 2.4 2 8.6 4.4 11.5 4.4 3.9 0 8.3 2.7 10 6 1.2 2.3 1.5 5.5 1.3 13.3 l-0.3 10.2 -5.1 2.5 c-7.2 3.5 -8.4 4.7 -8.4 8.6 0 2.9 -0.3 3.4 -2.5 3.4 -2.2 0 -2.4 -0.2 -1.5 -2.6z"/>
  <path d="M193 169.5 c0 -4 4.1 -9.5 7.2 -9.5 1 0 1.8 -0.6 1.8 -1.3 0 -1.6 6.2 -4.7 9.5 -4.7 1.4 0 2.5 -0.4 2.5 -1 0 -0.5 1.6 -1 3.5 -1 4.6 0 4.7 2.6 0.3 3.5 -8.1 1.8 -18.3 8.8 -21.4 14.8 -2 3.7 -3.4 3.4 -3.4 -0.8z"/>
  <path d="M289.9 169.5 c2.1 -4.5 4.1 -4.5 4.1 0 0 3.2 -0.3 3.5 -2.9 3.5 l-2.8 0 1.6 -3.5z"/>
  <path d="M258.5 164.4 c-7 -5 -13.1 -7.9 -19.2 -9.4 -3.6 -0.8 -5.3 -1.7 -5.3 -2.7 0 -1.3 0.9 -1.5 5.2 -1 2.9 0.4 5.4 1.1 5.6 1.7 0.2 0.5 1.4 1 2.7 1 3.4 0 5.5 1 5.5 2.6 0 0.8 1 1.4 2.5 1.4 1.4 0 2.5 0.5 2.5 1 0 0.6 0.7 1 1.5 1 0.8 0 1.5 0.5 1.5 1 0 0.6 0.7 1 1.5 1 1 0 1.5 1 1.5 3 0 1.7 -0.1 3 -0.2 2.9 -0.2 0 -2.5 -1.6 -5.3 -3.5z"/>
  <path d="M195 141.1 c0 -0.5 2 -2.1 4.5 -3.4 l4.5 -2.6 0 2.9 c0 1.6 -0.7 3 -1.6 3.4 -2.4 0.9 -7.4 0.7 -7.4 -0.3z"/>
  <path d="M265 130 c0 -4.5 2.3 -5.7 3.4 -1.7 1.1 4.1 0.7 5.7 -1.4 5.7 -1.7 0 -2 -0.7 -2 -4z"/>
  <path d="M173 130.1 c0 -0.4 -1.8 -2.9 -4.1 -5.5 -2.2 -2.5 -3.5 -4.6 -2.7 -4.6 3 0 5.8 1.3 5.8 2.6 0 0.8 0.7 1.4 1.5 1.4 1 0 1.5 1.1 1.5 3.5 0 1.9 -0.4 3.5 -1 3.5 -0.5 0 -1 -0.4 -1 -0.9z"/>
  <path d="M145 119.5 c0 -3.3 0.2 -3.5 3.5 -3.5 l3.5 0 -2 2 c-1.1 1.1 -2 2.7 -2 3.5 0 0.8 -0.7 1.5 -1.5 1.5 -1 0 -1.5 -1.1 -1.5 -3.5z"/>
  <path d="M189 121.5 c0 -0.8 0.4 -1.5 0.9 -1.5 0.5 0 1.8 -0.3 2.8 -0.7 1.7 -0.6 1.7 -0.5 -0.1 1.5 -2.2 2.6 -3.6 2.8 -3.6 0.7z"/>
  <path d="M211.2 113.8 c0.3 -0.7 1.9 -1.8 3.6 -2.5 3.1 -1.3 3.2 -1.2 3.2 1.2 0 2.2 -0.4 2.5 -3.6 2.5 -2.3 0 -3.4 -0.4 -3.2 -1.2z"/>
  <path d="M130.8 111.3 c-1.1 -0.3 -1.8 -1.4 -1.8 -2.9 l0 -2.4 4.7 1.8 c5.7 2.1 6.9 4.2 2.1 4.1 -1.8 -0.1 -4.1 -0.3 -5 -0.6z"/>
  <path d="M261 108.5 c0 -4 2.4 -4.9 3.4 -1.2 1 3.7 0.7 4.7 -1.4 4.7 -1.6 0 -2 -0.7 -2 -3.5z"/>
  <path d="M118 104.6 c0 -2.3 0.2 -2.4 3.5 -1.3 1.9 0.6 3.5 1.6 3.5 2.4 0 0.8 -1.3 1.3 -3.5 1.3 -3 0 -3.5 -0.3 -3.5 -2.4z"/>
  <path d="M102 101.6 c0 -1.3 2.8 -2.6 5.8 -2.6 0.6 0 1.2 0.9 1.2 2 0 1.6 -0.7 2 -3.5 2 -2.3 0 -3.5 -0.5 -3.5 -1.4z"/>
 </g>
 <g fill="#e0977f">
  <path d="M142.1 208.9 c-5.6 -0.4 -10.5 -1 -10.8 -1.3 -0.3 -0.3 1.2 -1.2 3.2 -2 2 -0.9 5.9 -3.2 8.6 -5.2 l4.9 -3.6 0 3.1 c0 2.3 -0.5 3.1 -1.7 3.1 -3.1 0.1 6.1 3 9.5 3 2.5 0 3.2 0.4 3.2 2 0 2.3 0.3 2.2 -16.9 0.9z"/>
  <path d="M164.8 206.1 c-4.4 -9.4 -0.3 -18.1 8.5 -18.1 2.3 0 5.1 0.7 6.1 1.5 1.1 0.8 3.1 1.5 4.5 1.5 4.7 0 5.4 1.2 4.9 8.2 -0.9 10.5 -1.2 10.8 -12.6 10.8 l-9.7 -0.1 -1.7 -3.8z m15.1 1 c2.2 -1.2 5.5 -8.5 4.8 -10.5 -0.4 -0.9 -1.5 -1.6 -2.6 -1.6 -1.1 0 -3.6 -0.7 -5.5 -1.6 -4.5 -2.2 -6.3 -1.4 -6.9 3.3 -0.6 4.3 1.4 8 5.4 10 2.9 1.5 2.6 1.5 4.8 0.4z"/>
  <path d="M196 208 c0 -1.6 0.7 -2 3.5 -2 4 0 4.9 2.4 1.3 3.4 -3.8 1 -4.8 0.7 -4.8 -1.4z"/>
  <path d="M212 206.1 c0 -1.4 -0.8 -2.1 -2.7 -2.3 -2.4 -0.3 -2.9 -0.8 -3.1 -3.7 l-0.4 -3.5 3.4 2.7 c1.8 1.5 4.8 3.7 6.5 5 4.2 2.8 4.1 3.7 -0.2 3.7 -2.8 0 -3.5 -0.4 -3.5 -1.9z"/>
  <path d="M33 201.4 c-10.4 -2.3 -18.9 -8.9 -25.5 -19.8 -3.6 -6 -4.2 -9.5 -2.5 -14 1.4 -3.9 3.5 -3.1 4.9 1.7 0.7 2.3 2 5 2.9 6 0.8 0.9 2.7 3.7 4.1 6.1 2.9 5 9.9 11.2 15.1 13.4 7.7 3.3 19.6 1 27.5 -5.4 l3.9 -3.2 -1.2 -5.3 c-1.9 -7.9 -2.5 -12.9 -1.6 -12.9 2.1 0 5.4 7.5 6.9 15.4 l1.6 8.6 -2.3 2.9 c-2.7 3.4 -5.2 4.6 -12.8 6 -10.2 1.8 -14.5 1.9 -21 0.5z"/>
  <path d="M303.7 201.4 c-7.6 -1.4 -16.1 -5 -19.5 -8.3 -2 -2 -2.2 -2.8 -1.6 -8.9 0.5 -5.1 1.2 -7.3 3 -9.2 l2.4 -2.5 0 5.3 c0 8.4 1.5 10.4 12 15.5 11.8 5.7 19.8 3.8 34.9 -8.4 5.2 -4.1 8.3 -5.9 10.3 -5.9 2.6 0 2.8 0.2 2.2 2.8 -0.9 3.7 -0.5 3.3 -8.2 9.5 -11.5 9.4 -22.3 12.5 -35.5 10.1z"/>
  <path d="M263 193.2 c3.1 -4.7 6.1 -14.8 5.4 -18 -1.4 -5.9 -15.6 -16.5 -26.3 -19.6 -6.9 -2 -17 -2 -24.4 -0.1 -18.7 4.9 -27.3 17.1 -20.8 29.6 2.6 4.9 2.6 4.9 -0.4 4.9 -1.8 0 -2.5 -0.5 -2.5 -2 0 -1.1 -0.4 -2 -0.9 -2 -0.5 0 -1.1 -1 -1.5 -2.3 -0.6 -2.7 -7.2 -6.7 -11 -6.7 -1.4 0 -3.6 1 -4.8 2.3 -1.2 1.2 -4.1 3.3 -6.4 4.7 -8.7 5.3 -10.4 6.5 -10.4 7.8 0 0.7 -1.3 1.2 -3 1.2 l-3 0 4 -6.2 c2.6 -3.9 4 -7.3 4 -9.3 0 -3.8 1.3 -5.1 8.4 -8.5 l5.1 -2.5 0.1 -7.5 c0.1 -9.2 -1.4 -12.6 -6.7 -14.9 -2.1 -1 -3.6 -2.1 -3.1 -2.6 0.4 -0.5 0.1 -0.5 -0.6 -0.1 -0.7 0.4 -5.8 -0.8 -11.5 -2.8 -5.6 -1.9 -13.6 -4.4 -17.8 -5.5 -8.8 -2.5 -15.3 -5.4 -24.7 -11.4 -7.4 -4.8 -17.2 -13.8 -17.2 -15.9 0 -1 -0.3 -0.9 -1.1 0.2 -0.7 1.1 -0.9 1.1 -0.7 0.1 0.4 -1.4 10.1 -5.7 15.2 -6.6 2.3 -0.5 4.6 0.2 9.1 2.6 7.6 4.1 15.3 6.9 15.7 5.8 0.3 -0.7 19.2 6.2 20.6 7.6 0.3 0.3 -0.4 1.2 -1.6 2.1 -2.5 1.7 -3 7.4 -0.9 11 4.3 7.6 10.4 11.4 18.1 11.4 4.9 0 6.6 -1.3 6.6 -5.3 0 -3.7 -1.4 -6.3 -5.9 -11 l-3.6 -3.8 4.5 0.7 c2.5 0.4 5.6 1 6.9 1.4 1.4 0.3 5.4 0 8.8 -0.8 3.5 -0.8 6.6 -1.2 6.9 -1 0.2 0.3 -1.1 2.9 -3.1 5.8 -4.2 6.3 -4.6 10.3 -1 12.6 5.7 3.7 17 -1.4 21 -9.4 2.5 -5.1 4.5 -5.4 4.5 -0.8 l0 3.3 10.3 3.3 c9.7 3.1 11 3.3 26.5 3.4 16.2 0.1 16.2 0.1 16.2 -2.1 0 -3 2.6 -3 3.4 0 0.3 1.2 0.6 9.3 0.6 17.9 0 10.2 0.4 15.9 1.1 16.4 1.2 0.7 0.7 7.1 -1.1 13.1 -0.7 2.1 -3 5.8 -5.2 8.3 -3 3.4 -3.4 3.7 -1.8 1.2z"/>
  <path d="M208.9 119.5 l-1.6 -3.5 2.8 0 c2.6 0 2.9 0.3 2.9 3.5 0 4.5 -2 4.5 -4.1 0z"/>
  <path d="M261 110 c0 -2.5 -0.4 -3 -2.5 -3 -2 0 -2.5 -0.5 -2.5 -2.4 0 -2.3 0.2 -2.4 3.5 -1.4 2.4 0.8 3.7 2 4.5 4.1 1.5 4.4 1.3 5.7 -1 5.7 -1.6 0 -2 -0.7 -2 -3z"/>
  <path d="M246 101.5 c0 -2.1 2.4 -2.9 4.9 -1.5 3.2 1.6 2.5 3 -1.4 3 -2.5 0 -3.5 -0.4 -3.5 -1.5z"/>
 </g>
 <g fill="#eea288">
  <path d="M153.5 209.3 c-2.5 -0.3 -9.9 -2.2 -15.4 -3.9 -0.8 -0.3 0.4 -1.6 3.2 -3.5 2.5 -1.6 8.3 -6.6 12.9 -11 4.6 -4.5 10.4 -9.2 13.1 -10.5 2.6 -1.3 4.7 -2.9 4.7 -3.4 0 -0.5 1.3 -1.6 3 -2.5 6.3 -3.3 17.7 1 20.3 7.6 1.5 3.8 1.5 3.9 -0.6 3.9 -1.2 0 -5.1 -0.9 -8.6 -2 -6.3 -2 -8.4 -2 -12.8 0.2 -3.3 1.6 -2.8 2.8 1.1 2.8 1.8 0 3.9 0.7 4.6 1.5 0.7 0.8 2.7 1.5 4.6 1.5 1.8 0 3.9 0.7 4.8 1.5 2.2 2.3 3.1 10 1.6 14.6 -1.2 3.6 -1.6 3.9 -5.2 3.9 -4.4 0 -4.5 -0.3 -1.9 -3.6 1.1 -1.4 2.2 -4.3 2.6 -6.6 0.8 -4.5 -0.2 -5.8 -4.6 -5.8 -1.4 0 -3.4 -0.7 -4.5 -1.5 -2.8 -2.1 -4 -1.9 -7.4 1.5 -3.5 3.4 -3.7 5.2 -1 8.9 1 1.5 1.8 3.7 1.7 4.9 -0.1 2 -0.6 2.2 -6.7 2.1 -3.6 -0.1 -7.8 -0.4 -9.5 -0.6z"/>
  <path d="M193 208 c0 -1.7 0.7 -2 4.5 -2 4.9 0 6.4 2.3 2.3 3.4 -4.5 1.2 -6.8 0.7 -6.8 -1.4z"/>
  <path d="M210 207.1 c0 -1.1 -0.4 -2.1 -1 -2.1 -0.5 0 -1 -1.4 -1 -3.1 l0 -3 3.1 2.3 c1.7 1.3 4.7 3.3 6.7 4.5 2.8 1.7 3.2 2.3 1.7 2.3 -1.1 0 -3.7 0.3 -5.7 0.6 -3.4 0.6 -3.8 0.4 -3.8 -1.5z"/>
  <path d="M31.8 198.7 c-6.8 -2 -15.3 -8.8 -18.3 -14.8 -1 -1.9 -2.5 -4.3 -3.5 -5.4 -0.9 -1.1 -2.5 -4.2 -3.3 -6.9 -1.7 -5 -1.3 -7 1.7 -9.6 1.3 -1 1.6 -1 1.6 0.2 0 1.7 4.1 5.8 5.8 5.8 0.7 0 1.2 0.6 1.2 1.3 0 1.5 3.9 -3.3 4 -4.9 0 -1.6 4.9 -2.4 14.4 -2.4 9.6 0.1 11.9 1 18.4 7.2 l4.9 4.6 -0.5 -4.9 c-0.3 -3.7 -0.1 -4.9 0.9 -4.9 2.1 0 6.2 11.7 6.7 19.1 l0.4 6.5 -3.8 3 c-8.1 6.2 -21.1 8.8 -30.6 6.1z m14.7 -7.1 c1.9 -0.8 3.5 -1.7 3.5 -2 0 -1.4 -14.5 -7.7 -16.4 -7.2 -1.2 0.2 -3.6 0.9 -5.5 1.3 l-3.5 0.9 3.7 3.6 c2 2 4.6 3.8 5.9 4.1 4.8 0.9 9 0.7 12.3 -0.7z"/>
  <path d="M302.5 198.7 c-4.3 -1.5 -11 -4.9 -13.6 -6.9 -5.9 -4.7 -6 -13.8 -0.3 -20 1.9 -2.1 3.6 -3.8 3.9 -3.8 0.3 0 0.5 1.6 0.5 3.5 0 2.4 -0.5 3.5 -1.5 3.5 -1.8 0 -2 1.6 -0.2 2.3 0.8 0.3 2.9 -1.8 5.3 -5 2.1 -3 5.4 -6.4 7.2 -7.5 4.1 -2.5 15.3 -3.6 20.4 -1.9 4.6 1.5 10 7.2 10.7 11.4 l0.6 3.4 5.3 -1.3 c3 -0.8 5.8 -1.2 6.3 -0.8 1.7 1 0.9 5.3 -1.2 6.5 -1.2 0.6 -5.1 3.5 -8.8 6.5 -9.5 7.7 -15.4 10.4 -23.7 10.9 -4.3 0.3 -8.4 0 -10.9 -0.8z m16.3 -7.3 c5.2 -1.9 8.3 -6.4 4.5 -6.4 -1 0 -4.6 -1 -8 -2.2 -6 -2.2 -6.4 -2.2 -9.2 -0.5 -1.6 0.9 -4.3 1.7 -6 1.7 l-3 0 1.7 3 c1.5 2.5 4.8 4.6 10.2 6.3 1.8 0.6 3.9 0.2 9.8 -1.9z"/>
  <path d="M199 193.3 l0 -3.7 3.5 3.4 c1.9 1.9 3.5 3.5 3.5 3.7 0 0.2 -1.6 0.3 -3.5 0.3 -3.4 0 -3.5 -0.1 -3.5 -3.7z"/>
  <path d="M263 141.9 c-3 -0.3 -10.9 -0.5 -17.5 -0.3 -11.5 0.4 -12.5 0.3 -24 -3.2 -14.4 -4.4 -15.1 -4.8 -13 -8 0.8 -1.3 1.5 -4.3 1.5 -6.8 0 -3.5 -0.5 -4.9 -2.4 -6.4 l-2.5 -1.9 6.7 -2.8 c3.7 -1.5 8.8 -3.6 11.5 -4.6 l4.7 -1.9 0 2.3 c0 2.5 -4.3 4.7 -9.4 4.7 -2 0 -2.7 0.4 -2.4 1.6 0.2 1.1 3.2 2.7 8.3 4.4 16.7 5.8 19.2 6.3 28.7 5.6 5 -0.3 9.4 -0.8 9.9 -1.2 0.5 -0.3 0.9 -1.8 0.9 -3.5 0 -4.1 2.8 -3.9 3.4 0.4 1.6 11.4 2.5 21.2 1.8 21.7 -0.4 0.3 -3.2 0.3 -6.2 -0.1z"/>
  <path d="M182.8 126.6 c-2 -0.6 -4 -1.4 -4.4 -1.8 -0.4 -0.5 -1.8 -0.8 -3.1 -0.8 -1.3 0 -2.2 -0.4 -1.9 -0.9 0.3 -0.5 1.4 -0.7 2.4 -0.5 0.9 0.3 5.5 -0.4 10 -1.4 l8.4 -2 -3.4 3.7 c-1.8 2 -3.5 3.9 -3.8 4.2 -0.3 0.3 -2.2 0.1 -4.2 -0.5z"/>
  <path d="M135.7 113.4 c-12.9 -2.6 -21.5 -6.3 -26 -11.3 -1.5 -1.7 -2.5 -3.1 -2.2 -3.1 2.4 0 39.9 14.1 41.4 15.6 0.8 0.8 -6.5 0.1 -13.2 -1.2z"/>
  <path d="M244 101.6 c0 -1.5 3.5 -2.7 5.6 -1.9 2.9 1.1 1.5 3.3 -2.1 3.3 -2.3 0 -3.5 -0.5 -3.5 -1.4z"/>
 </g>
 <g fill="#bfbfbf">
  <path d="M168 234.3 c-7.9 -0.8 -22.9 -3.3 -25.4 -4.2 -2.5 -1 -2.6 -1.4 -2.6 -8.2 0 -6.9 0.1 -7.1 2.3 -6.5 1.2 0.3 2.5 0.6 3 0.6 1.1 0 0.8 3 -0.3 3 -0.5 0 -1 1.3 -1 2.9 0 3.7 0.9 3.9 17.8 4.8 l13.2 0.6 0 3.9 c0 3 -0.4 3.8 -1.7 3.6 -1 0 -3.4 -0.3 -5.3 -0.5z"/>
  <path d="M181 229.5 c0 -4.8 0.2 -5.5 2 -5.5 1.2 0 2 0.7 2 1.7 0 1.4 1.2 1.5 10.8 0.9 5.9 -0.3 12.4 -0.9 14.6 -1.3 l3.8 -0.6 -0.5 -4.7 c-0.5 -4.1 -0.3 -4.9 1.2 -5.3 1.6 -0.4 2 0.4 2.5 5.5 0.5 3.8 0.3 6.4 -0.4 7.3 -1.9 2.3 -26 7.5 -35.2 7.5 -0.5 0 -0.8 -2.5 -0.8 -5.5z"/>
  <path d="M125 223.5 c-3.6 -1.9 -8.5 -5.3 -11 -7.6 l-4.5 -4 7.4 0.6 c9.4 0.7 12.1 1.4 12.1 3 0 0.8 -1.2 1.5 -2.7 1.7 -2.6 0.3 -2.5 0.5 2.5 3.1 3.6 1.9 5.2 3.3 5.2 4.7 0 2.7 -1.5 2.5 -9 -1.5z"/>
  <path d="M223 222.1 c0 -2.5 0.4 -3.1 2.1 -3.1 1.6 0 2 0.5 1.7 2.7 -0.2 1.7 -1 2.9 -2 3.1 -1.4 0.3 -1.8 -0.3 -1.8 -2.7z"/>
  <path d="M232 218.6 c0 -2.2 -0.3 -2.3 -4.5 -1.8 -3.6 0.4 -4.5 0.2 -4.5 -1.1 0 -1.8 1.4 -2.3 9.1 -3.2 3.1 -0.3 8 -1.2 10.9 -2 l5.3 -1.4 -2.9 3 c-2.7 2.9 -11.4 8.9 -12.7 8.9 -0.4 0 -0.7 -1.1 -0.7 -2.4z"/>
  <path d="M155 218 c0 -1.5 0.7 -2 2.8 -2 4.2 0 7.2 1.1 7.2 2.6 0 1 -1.4 1.4 -5 1.4 -4.3 0 -5 -0.3 -5 -2z"/>
  <path d="M188 218.6 c0 -1.4 2.9 -2.6 6.8 -2.6 1.5 0 2.2 0.6 2.2 2 0 1.7 -0.7 2 -4.5 2 -3.2 0 -4.5 -0.4 -4.5 -1.4z"/>
  <path d="M204 217.6 c0 -1.3 2.8 -2.6 5.8 -2.6 0.6 0 1.2 0.9 1.2 2 0 1.6 -0.7 2 -3.5 2 -2.3 0 -3.5 -0.5 -3.5 -1.4z"/>
  <path d="M227.7 197.9 c-8.9 -2.1 -22.7 -11.1 -22.7 -14.7 0 -2.1 5.1 -1.4 5.7 0.8 0.3 1.1 1.2 2 1.9 2 0.8 0 1.4 0.9 1.4 2 0 1.5 0.7 2 2.9 2 1.6 0 3.6 0.6 4.3 1.3 0.7 0.7 4.1 2 7.6 2.7 4.8 1.1 6.2 1.8 6.2 3.2 0 2 -1.3 2.1 -7.3 0.7z"/>
  <path d="M236 197.2 c0 -2 3.2 -3.2 8.6 -3.2 5.3 0 1.7 3.3 -4.9 4.5 -3.3 0.6 -3.7 0.5 -3.7 -1.3z"/>
  <path d="M111.6 196.4 c-7.3 -2.7 -12.9 -8.2 -16.1 -15.8 -1.5 -3.6 -1.5 -3.6 1 -3.6 1.8 0 2.5 0.5 2.5 2 0 1.1 0.5 2 1 2 0.6 0 1 0.6 1 1.4 0 0.8 0.7 1.6 1.5 2 0.8 0.3 1.5 1.2 1.5 2.1 0 0.8 0.7 1.5 1.5 1.5 0.9 0 1.8 0.6 2.1 1.4 0.3 0.8 1.6 1.7 3 2 1.3 0.4 2.4 1.1 2.4 1.6 0 0.6 1.4 1 3 1 2.3 0 3 0.4 3 2 0 2.4 -1.8 2.5 -7.4 0.4z"/>
  <path d="M121 196.1 c0 -1.7 0.6 -2.1 3 -2.1 2.5 0 3 -0.4 3 -2.5 0 -2.2 0.2 -2.4 2.6 -1.5 1.4 0.6 4.1 1 6 1 1.9 0 3.4 0.4 3.4 0.9 0 1.1 -9 4.6 -14.3 5.6 -3.3 0.7 -3.7 0.5 -3.7 -1.4z"/>
  <path d="M250 192 c0 -1.5 0.7 -2 2.5 -2 1.4 0 2.5 0.2 2.5 0.4 0 0.2 -1.1 1.1 -2.5 2 -2.4 1.6 -2.5 1.6 -2.5 -0.4z"/>
  <path d="M235 191 c0 -0.5 -0.9 -1 -2 -1 -1.3 0 -2 -0.7 -2 -2 0 -1.3 -0.7 -2 -1.9 -2 -2.1 0 -3.1 -1.9 -3.1 -6.1 0 -4.1 1.5 -3.6 4.2 1.3 1.6 2.9 3.7 4.9 7.1 6.5 5.6 2.8 6 4.3 1.2 4.3 -1.9 0 -3.5 -0.4 -3.5 -1z"/>
  <path d="M117.1 184.9 c-1.6 -4.6 -1.4 -8.9 0.4 -8.9 0.8 0 1.5 0.6 1.5 1.3 0 0.8 1.1 3.5 2.4 6 l2.3 4.7 -2.7 0 c-2.2 0 -3 -0.6 -3.9 -3.1z"/>
  <path d="M99 173.2 c0 -0.8 7.1 -5.2 8.4 -5.2 1.4 0 0.5 4.8 -1 5.4 -2.3 0.9 -7.4 0.7 -7.4 -0.2z"/>
  <path d="M225 169.5 c0 -1.9 0.5 -3.5 1 -3.5 0.6 0 1 -0.7 1 -1.5 0 -0.8 0.8 -1.5 1.8 -1.5 1.8 0 1.8 0.3 0.3 5 -1.8 5.9 -4.1 6.7 -4.1 1.5z"/>
  <path d="M116 170.5 c0 -1 -1.1 -1.5 -3.5 -1.5 -1.9 0 -3.5 -0.5 -3.5 -1 0 -1.6 5.8 -3.8 8.6 -3.2 2.5 0.5 2.8 1.2 1.8 5 -0.7 2.5 -3.4 3.1 -3.4 0.7z"/>
  <path d="M209 169.2 c0 -0.7 1.7 -1.8 6.3 -4 0.4 -0.2 0.7 0.8 0.7 2.2 0 2.3 -0.4 2.6 -3.5 2.6 -1.9 0 -3.5 -0.4 -3.5 -0.8z"/>
  <path d="M55.2 158.8 c-2.7 -8.7 -2.7 -8.6 -0.4 -8.4 2.2 0.1 3 1.5 4.8 8.2 1.8 7 1.8 7.4 -0.4 7.4 -1.3 0 -2.3 -1.8 -4 -7.2z"/>
  <path d="M292 162.8 c0 -3 1.3 -5.8 2.6 -5.8 0.9 0 1.4 1.2 1.4 3.5 0 2.8 -0.4 3.5 -2 3.5 -1.1 0 -2 -0.6 -2 -1.2z"/>
  <path d="M195.3 54.8 c-5.8 -1.3 -11.6 -6.7 -11.1 -10.5 0.8 -7.3 14.5 -9.8 20.8 -3.8 5.3 5.1 5.2 12.5 -0.2 14.4 -3.5 1.2 -3.7 1.2 -9.5 -0.1z m4 -8.9 c-1.3 -1.4 -2.8 -1.9 -3.8 -1.5 -2.5 0.9 0 3.6 3.3 3.6 l2.6 0 -2.1 -2.1z"/>
 </g>
 <g fill="#fdb095">
  <path d="M185.3 208.9 c-1 -1 -0.8 -1.9 0.7 -4.4 1.6 -2.6 1.8 -3.8 1 -6.5 -1.1 -3.9 -2.4 -5 -6.4 -5 -1.6 0 -3.8 -0.7 -4.7 -1.6 -1.6 -1.4 -2.3 -1.5 -4.9 -0.4 -1.6 0.7 -3.8 0.9 -4.7 0.5 -1.7 -0.6 -1.7 -0.7 0 -2 1.3 -0.9 1.6 -2 1.2 -3.7 -1.5 -5.7 9.9 -8.4 21.2 -5 5.9 1.8 7.1 2.6 8.7 5.7 2.5 4.5 11.7 13.7 18 17.8 l4.9 3.2 -4.4 0.6 c-10.7 1.5 -29.4 2 -30.6 0.8z m-1.5 -21.1 c-0.2 -0.6 -1.4 -1.5 -2.6 -1.9 -2 -0.8 -2.1 -0.6 -1.2 1.1 1.1 2.1 4.4 2.8 3.8 0.8z"/>
  <path d="M150.2 199.1 c-1 -0.6 -1 -1 0.2 -2.1 0.9 -0.7 1.3 -1.7 0.9 -2.4 -0.3 -0.6 -0.3 -0.8 0.2 -0.4 0.4 0.4 1.3 0.4 1.9 -0.1 0.6 -0.5 2.7 -1.1 4.7 -1.5 2.8 -0.5 3.6 -0.3 3.6 0.9 0 0.8 -0.7 1.5 -1.5 1.5 -0.8 0 -2.2 0.8 -3.1 1.9 -2 2.3 -5.2 3.3 -6.9 2.2z"/>
  <path d="M35 195.9 c-2.5 -0.5 -5.5 -1.4 -6.8 -2.1 -1.9 -1 -6.8 -6.9 -10.4 -12.3 -0.4 -0.6 1.3 -1.1 4.5 -1.2 2.9 -0.1 7.7 -0.5 10.8 -0.8 5.1 -0.6 6.3 -0.3 12.7 2.9 8 4 8.6 4.7 7.8 8.2 -1.1 4.2 -10.1 6.8 -18.6 5.3z"/>
  <path d="M306 196.4 c-5.6 -2 -9 -3.9 -9.4 -5.1 -0.8 -2.1 -4.5 -7 -7.9 -10.4 -3.1 -3.1 -3 -5.9 0.4 -9.2 1.1 -1 1.9 -2.8 1.9 -4 0 -1.2 0.4 -2.7 0.8 -3.2 1.8 -2.7 7.3 -5.4 13.9 -7 11.6 -2.8 23.3 -0.4 36 7.4 2.3 1.5 3.5 3.3 4.6 7.2 0.9 2.9 1.4 5.6 1.1 6.1 -0.3 0.4 -2.3 1.1 -4.4 1.4 -2.2 0.4 -5.4 1.7 -7.2 3 -1.7 1.3 -3.7 2.4 -4.3 2.4 -0.6 0 -2.1 1.8 -3.3 3.9 -1.6 2.7 -3.5 4.4 -6.5 5.6 -4.4 1.8 -13.2 2.8 -15.7 1.9z m24.8 -15.6 c2.1 -2.1 1.3 -5.7 -2.4 -9.7 -1.9 -2.2 -5.1 -4.5 -7 -5.1 -4.6 -1.5 -11.2 -0.5 -15.2 2.3 -2.7 1.9 -10.2 10.9 -10.2 12.2 0 1.1 4.7 0.4 6.6 -1 2.7 -2 11 -1.8 16.4 0.5 5.2 2.2 10.1 2.5 11.8 0.8z"/>
  <path d="M58.4 184.4 c-0.6 -0.3 -0.9 -1.6 -0.6 -3 0.4 -2 -0.7 -3.5 -5.8 -8.2 -3.4 -3.1 -7.4 -6.2 -8.9 -6.9 -4.9 -2.2 -19.1 -1.3 -19.1 1.2 0 1.9 -5.5 7.5 -7.3 7.5 -0.9 0 -1.9 -0.9 -2.2 -2 -0.3 -1.1 -1.2 -2 -1.9 -2 -1.7 0 -5.6 -4.3 -5.6 -6.1 0 -0.8 2 -3.7 4.4 -6.4 3.4 -4 4.6 -4.7 5.7 -3.8 0.8 0.7 6.8 1.2 14.9 1.5 12 0.3 14 0.6 18 2.7 2.5 1.4 6 3.1 7.8 4 2.1 1 3.2 2.2 3.2 3.6 0 1.2 0.7 3 1.5 4.1 2 2.6 1.9 5 -0.6 10.1 -1.1 2.4 -2.2 4.3 -2.2 4.2 -0.1 0 -0.7 -0.3 -1.3 -0.5z"/>
  <path d="M234.5 126.4 c-16.6 -5.4 -24.8 -8.4 -26.7 -9.6 -2 -1.3 -1.5 -1.7 8.3 -5.7 5.7 -2.4 15.3 -6.1 21.4 -8.1 l11 -3.8 5 2 c2.7 1.1 6.1 2.3 7.4 2.7 2.5 0.7 4 4.6 6 15.6 1.4 7.3 0.7 7.6 -14.5 8.1 -10 0.3 -14 0.1 -17.9 -1.2z"/>
 </g>
 <g fill="#c9c9c9">
  <path d="M158.3 229.8 c-17.8 -1.2 -18 -1.2 -18.1 -8.2 0 -4.9 0.2 -5.6 1.9 -5.6 1.5 0 1.9 0.7 1.9 3.4 0 3.3 0.1 3.3 5.3 4 2.8 0.3 9.8 0.9 15.5 1.3 l10.3 0.6 -0.3 2.6 c-0.4 3.1 0 3.1 -16.5 1.9z"/>
  <path d="M181.6 227.6 c-0.9 -4.3 -0.8 -4.6 1.4 -4.6 1.2 0 2 0.7 2 1.7 0 1.4 1.1 1.5 9.8 1 5.3 -0.4 12.5 -1 16 -1.3 5.8 -0.6 6.2 -0.6 6.2 1.4 0 2.4 -3.6 3.1 -22.5 4.1 l-12.4 0.6 -0.5 -2.9z"/>
  <path d="M126.8 223.9 c-4.7 -2.4 -4.9 -3.9 -0.5 -3.9 5.6 0 7.7 1 7.7 3.6 0 3 -2.1 3.1 -7.2 0.3z"/>
  <path d="M230 219.5 c0 -2.1 -0.5 -2.5 -3 -2.5 -3.9 0 -4 -2.6 -0.2 -3.4 10 -1.9 11.2 -1.9 11.2 0.3 0 1.7 -0.7 2.1 -3.7 2.3 -3.7 0.1 -3.7 0.1 -0.5 0.5 4 0.5 4 1.4 0.3 3.6 -3.8 2.2 -4.1 2.2 -4.1 -0.8z"/>
  <path d="M181 219 c0 -1.3 0.7 -2 2 -2 1.3 0 2 0.7 2 2 0 1.3 -0.7 2 -2 2 -1.3 0 -2 -0.7 -2 -2z"/>
  <path d="M114.1 215.9 c-2.9 -2.3 -5 -4.4 -4.7 -4.6 0.2 -0.3 3 0 6 0.7 5.5 1.1 5.6 1.2 5.6 4.6 0 1.9 -0.4 3.4 -0.9 3.4 -0.4 0 -3.2 -1.9 -6 -4.1z"/>
  <path d="M154 218 c0 -2.1 1 -2.4 4.8 -1.4 3.6 1 2.7 3.4 -1.3 3.4 -2.8 0 -3.5 -0.4 -3.5 -2z"/>
  <path d="M235 197 c0 -1.6 0.7 -2 3.5 -2 4 0 4.9 2.4 1.3 3.4 -3.8 1 -4.8 0.7 -4.8 -1.4z"/>
  <path d="M209.1 187.9 l-3.5 -3.4 2.8 -0.3 c1.6 -0.2 3.3 0.1 3.8 0.6 0.5 0.5 0.8 2.2 0.6 3.8 l-0.3 2.8 -3.4 -3.5z"/>
  <path d="M218 165.6 c0 -1.3 2.8 -2.6 5.8 -2.6 0.6 0 1.2 0.9 1.2 2 0 1.6 -0.7 2 -3.5 2 -2.3 0 -3.5 -0.5 -3.5 -1.4z"/>
  <path d="M54 154 c0 -1.9 0.5 -3 1.4 -3 0.8 0 1.9 1.4 2.5 3 0.9 2.8 0.8 3 -1.5 3 -2 0 -2.4 -0.5 -2.4 -3z"/>
  <path d="M195 51.3 c-4.5 -1.6 -6.5 -6.4 -3.8 -9.1 0.7 -0.7 3.1 -1.2 5.4 -1.2 3.4 0 4.7 0.5 6.3 2.6 2.5 3.2 2.6 4.7 0.5 6.8 -1.5 1.6 -5.4 2 -8.4 0.9z m5 -4.2 c0 -1 -2.4 -2.1 -4.3 -2.1 -0.7 0 -0.3 0.7 0.7 1.5 2.2 1.7 3.6 1.9 3.6 0.6z"/>
 </g>
 <g fill="#ffc0a2">
  <path d="M187 193 c-0.8 -0.5 -3 -1 -4.9 -1 -2.6 0 -4.1 -0.8 -6.3 -3.2 -2.6 -3 -2.7 -3.3 -1.1 -5 1.6 -1.8 6.2 -2.3 9.5 -1 2.3 1 7 8.2 6.4 9.8 -0.6 1.6 -1.5 1.7 -3.6 0.4z"/>
  <path d="M340.6 169.2 c-1.2 -2 -15.7 -8.3 -21.1 -9.1 -7.3 -1.1 -15.6 0.8 -22.6 5.2 -2.7 1.6 -5.1 2.8 -5.4 2.5 -0.3 -0.2 0.3 -3.9 1.2 -8.1 1.6 -7.3 1.8 -7.7 5.3 -9.1 8.8 -3.5 22.6 -2.9 32.4 1.4 5 2.3 12.5 10.1 14.3 14.8 1.1 3 1 3.2 -1.2 3.2 -1.3 0 -2.6 -0.3 -2.9 -0.8z"/>
  <path d="M55 166.1 c-1.9 -1 -5.5 -2.9 -8 -4.2 -4 -2.1 -6 -2.4 -18.2 -2.7 -18.4 -0.5 -20 -2.5 -6.8 -8.2 4.5 -2 7.3 -2.4 15 -2.5 11.4 0 19.6 1.8 20.3 4.6 0.4 1.4 0 1.9 -1.6 1.9 -2 0.1 -2 0.2 0.4 1.5 2.6 1.4 4.9 5.9 4.9 9.6 0 2.3 -1.5 2.3 -6 0z"/>
  <path d="M242 101.9 c0 -0.5 0.4 -0.9 0.9 -0.9 0.5 0 1.7 -0.3 2.7 -0.7 1.1 -0.4 1.5 -0.3 1.1 0.4 -0.9 1.4 -4.7 2.4 -4.7 1.2z"/>
 </g>
 <g fill="#d6d6d6">
  <path d="M181.5 225.8 c-0.9 -5 -0.3 -8.2 1.8 -8.6 1.4 -0.3 1.7 0.4 1.7 3.4 l0 3.7 12.8 -0.6 c7 -0.4 14.2 -0.9 16 -1.3 2.9 -0.6 3.2 -0.4 3.2 1.8 0 3.1 -2 3.5 -21.2 4.5 l-13.7 0.6 -0.6 -3.5z"/>
  <path d="M151 226.9 c-4.1 -0.5 -8.1 -1 -8.9 -1.1 -1 -0.2 -1.6 -1.9 -1.7 -5.6 -0.3 -4.5 -0.1 -5.3 1.2 -4.8 0.9 0.3 2 0.6 2.5 0.6 0.6 0 0.9 1 0.7 2.3 -0.3 2.1 0.1 2.2 15 3.6 14.8 1.4 15.2 1.5 15.2 3.8 0 2.2 -0.2 2.3 -8.2 2.2 -4.6 -0.1 -11.7 -0.5 -15.8 -1z"/>
  <path d="M127.9 223.5 c-4.6 -1.2 -10.5 -4.8 -16.4 -10 l-3 -2.6 3.5 0.6 c1.9 0.3 5.9 1 8.9 1.5 2.9 0.5 5.9 1.5 6.7 2.1 1.1 0.9 1.4 0.9 1.4 0 0 -0.7 1 -1.1 2.3 -0.9 1.8 0.2 2.3 1 2.5 4.7 0.2 2.4 0 4.7 -0.5 5.1 -0.4 0.4 -2.9 0.2 -5.4 -0.5z"/>
  <path d="M223.4 221.3 c-0.5 -2.5 -0.3 -3.8 0.5 -4.1 0.6 -0.2 1.1 -1 1.1 -1.7 0 -1.2 2.9 -2.5 5.8 -2.5 0.6 0 1.2 0.9 1.2 2 0 1.5 -0.7 2 -2.5 2 -1.4 0 -2.5 0.3 -2.5 0.8 0 0.4 1.8 0.6 4 0.4 2.2 -0.2 4 0 4 0.5 0 0.9 -8.9 6.3 -10.3 6.3 -0.4 0 -0.9 -1.7 -1.3 -3.7z"/>
  <path d="M150 218 c0 -1.5 0.7 -2 2.8 -2 4.2 0 7.2 1.1 7.2 2.6 0 1 -1.4 1.4 -5 1.4 -4.3 0 -5 -0.3 -5 -2z"/>
  <path d="M191 218.6 c0 -0.7 1 -1.6 2.3 -2 4.1 -1.1 5.7 -0.7 5.7 1.4 0 1.7 -0.7 2 -4 2 -2.7 0 -4 -0.4 -4 -1.4z"/>
  <path d="M205 217.6 c0 -1.3 2.8 -2.6 5.8 -2.6 0.6 0 1.2 0.9 1.2 2 0 1.6 -0.7 2 -3.5 2 -2.3 0 -3.5 -0.5 -3.5 -1.4z"/>
  <path d="M239.2 214.4 c0.3 -2.5 0.8 -2.9 3.7 -3.2 3.8 -0.4 3.5 0.6 -1 3.9 l-3.1 2.1 0.4 -2.8z"/>
  <path d="M230.8 198.3 c-1 -0.2 -1.8 -1.1 -1.8 -1.9 0 -1.1 1.5 -1.4 6 -1.4 4.4 0 6 0.4 6 1.4 0 2.1 -5.5 3.2 -10.2 1.9z"/>
  <path d="M113.1 196.8 c-6.7 -2.5 -4.7 -3.5 6.4 -3.4 7.9 0.1 10.8 -0.2 11.4 -1.3 0.6 -0.9 1.8 -1.1 4.2 -0.6 l3.4 0.8 -5.4 2.4 c-6.5 2.9 -15.3 3.8 -20 2.1z"/>
  <path d="M221.3 195.5 c-4.3 -1.8 -4.2 -3.5 0.2 -3.5 3.1 0 3.5 0.3 3.5 2.5 0 1.4 -0.1 2.5 -0.2 2.5 -0.2 -0.1 -1.8 -0.7 -3.5 -1.5z"/>
  <path d="M245.3 194.5 c-2.5 -2.8 -1.5 -4.5 2.6 -4.5 5 0 5.8 1.3 2.5 3.9 -3.1 2.5 -3.5 2.5 -5.1 0.6z"/>
  <path d="M101.8 189.6 c-2 -2 -4.6 -5.8 -5.8 -8.4 l-2.2 -4.6 2.7 -2.3 c3.4 -3 4.5 -2.9 4.5 0.2 0 1.6 -0.6 2.5 -1.5 2.5 -0.8 0 -1.5 0.5 -1.5 1 0 0.6 0.5 1 1 1 0.6 0 1 1.6 1 3.5 0 3.1 0.3 3.5 2.5 3.5 2.8 0 3.8 1.6 3.3 5.1 -0.3 2.2 -0.5 2.2 -4 -1.5z"/>
  <path d="M212.3 190.5 l-2.8 -2.4 3.8 -0.1 c3.3 0 3.7 0.3 3.7 2.5 0 3.1 -1.1 3.2 -4.7 0z"/>
  <path d="M122 189 l0 -2.9 3.5 2 c1.9 1.2 3.5 2.5 3.5 3 0 0.5 -1.6 0.9 -3.5 0.9 -3.2 0 -3.5 -0.2 -3.5 -3z"/>
  <path d="M116 180.5 c0 -2.2 0.5 -3.5 1.3 -3.5 0.8 0 1.8 1.6 2.4 3.5 1.1 3.3 1 3.5 -1.3 3.5 -2.1 0 -2.4 -0.5 -2.4 -3.5z"/>
  <path d="M103 171.2 c0 -0.9 4.5 -3.7 8.3 -5.1 2.5 -1 2.7 -0.8 2.7 1.4 0 1.8 -0.5 2.5 -2 2.5 -1.1 0 -2 0.5 -2 1 0 0.6 -1.6 1 -3.5 1 -1.9 0 -3.5 -0.4 -3.5 -0.8z"/>
  <path d="M116 167.6 c0 -2.6 0.5 -3.5 2.2 -3.9 2.9 -0.8 2.9 -0.7 1.6 3.6 -1.4 4.7 -3.8 4.9 -3.8 0.3z"/>
  <path d="M212.2 167.8 c0.3 -0.7 1.9 -1.8 3.6 -2.5 3.1 -1.3 3.2 -1.2 3.2 1.2 0 2.2 -0.4 2.5 -3.6 2.5 -2.3 0 -3.4 -0.4 -3.2 -1.2z"/>
  <path d="M226 166 c0 -2.3 0.4 -3 2 -3 2.2 0 2.3 0.3 1.4 3.8 -0.9 3.3 -3.4 2.8 -3.4 -0.8z"/>
  <path d="M55 156.5 c0 -3.9 1.4 -4.6 3 -1.6 1.6 3.1 1.2 5.1 -1 5.1 -1.6 0 -2 -0.7 -2 -3.5z"/>
  <path d="M192.3 48.6 c-2.3 -2 -2.6 -2.8 -1.7 -4.3 3.9 -6.4 15.7 -1.7 13 5.2 -0.9 2.5 -8 1.9 -11.3 -0.9z"/>
 </g>
 <g fill="#ffffee">
  <path d="M178 189.5 c0 -0.9 0.5 -1.5 1.1 -1.3 0.6 0.2 1.1 0.8 1.1 1.3 0 0.5 -0.5 1.1 -1.1 1.3 -0.6 0.2 -1.1 -0.4 -1.1 -1.3z"/>
  <path d="M180.2 187.1 c-2.8 -0.7 -2.5 -2.7 0.2 -2.3 2.3 0.3 2.9 0.8 2.5 2 -0.2 0.4 -1.4 0.6 -2.7 0.3z"/>
  <path d="M52.8 159.6 c-3.2 -1.8 -9.2 -4.1 -13.3 -5.1 -4.1 -1.1 -7.5 -2.3 -7.5 -2.7 0 -2.4 14.9 -3 21.3 -0.9 3 1 3.8 2 5.1 5.8 2.6 7.6 2.6 7.6 -5.6 2.9z"/>
  <path d="M322.5 155.9 c-2.2 -0.5 -8.6 -0.6 -14.2 -0.2 -10.7 0.6 -12.4 -0.1 -8 -3 3.7 -2.4 12.3 -3.8 19.6 -3.1 5.8 0.6 7.4 1.2 10.7 4 l3.9 3.3 -4 -0.1 c-2.2 0 -5.8 -0.4 -8 -0.9z"/>
 </g>
 <g fill="#ffffff">
  <path d="M158 225.2 c-8.5 -0.8 -15.8 -1.7 -16.2 -2 -0.3 -0.4 -0.9 -2.3 -1.3 -4.2 l-0.6 -3.6 7.8 0.7 c4.3 0.4 12.2 0.8 17.6 0.8 l9.7 0.1 0 4.4 c0 2.5 -0.3 4.6 -0.7 4.8 -0.5 0.2 -7.8 -0.2 -16.3 -1z"/>
  <path d="M182 222.2 l0 -4.9 11.3 -0.7 c6.1 -0.3 14 -0.9 17.5 -1.3 l6.3 -0.6 -0.3 5.4 -0.3 5.4 -6 0.6 c-3.3 0.4 -11.1 0.7 -17.2 0.8 l-11.3 0.1 0 -4.8z"/>
  <path d="M223.6 220.9 c-1.2 -6.4 -1.3 -6.3 9.2 -8.2 5.3 -0.9 10.8 -1.9 12.2 -2.3 2.2 -0.5 2 -0.1 -1.5 3 -3.8 3.4 -16.2 10.6 -18.3 10.6 -0.5 0 -1.2 -1.4 -1.6 -3.1z"/>
  <path d="M122.5 217.9 c-4.9 -1.7 -9.9 -3.9 -11 -5.1 -1.6 -1.7 -1.7 -2 -0.3 -1.5 0.9 0.3 5.4 1.1 10 1.7 13.3 1.9 12.8 1.7 12.8 5 0 3.6 -0.1 3.6 -11.5 -0.1z"/>
  <path d="M112.2 196.1 c-6.5 -2.3 -12.6 -7.9 -15.8 -14.6 l-2.4 -5 2.5 -2 c3.4 -2.8 17.2 -9.6 21.1 -10.5 3.1 -0.7 3.2 -0.7 2.3 1.7 -0.5 1.3 -0.9 5.3 -0.9 8.7 0 9.9 3.7 14.2 15 17.1 l4.5 1.1 -5.7 2.2 c-8.5 3.2 -14.3 3.6 -20.6 1.3z"/>
  <path d="M221.3 195.4 c-9.7 -4 -18.3 -12.6 -18.3 -18.3 0 -5.5 11.4 -12.8 21.8 -13.8 l5.3 -0.6 -0.8 2.9 c-1.6 5.6 -0.9 14.1 1.3 17.1 3.2 4.4 10.3 7.5 17.5 7.5 5.8 0 6 0.1 4.3 1.9 -5.7 6.4 -19.9 7.9 -31.1 3.3z"/>
  <path d="M51 155 c-1.2 -0.8 -1.1 -1 0.7 -1 1.2 0 2.5 0.5 2.8 1 0.8 1.3 -1.5 1.3 -3.5 0z"/>
  <path d="M195.2 49.4 c-4 -1.6 -4.3 -4.9 -0.6 -6.6 3.5 -1.6 7.9 0.7 7.9 4.1 0 3.2 -3.2 4.3 -7.3 2.5z"/>
 </g>
</svg>